<?xml version="1.0" encoding="UTF-8" standalone="no"?>
<!DOCTYPE svg PUBLIC "-//W3C//DTD SVG 1.1//EN"
 "http://www.w3.org/Graphics/SVG/1.1/DTD/svg11.dtd">
<!-- Generated by graphviz version 2.38.0 (20140413.2041)
 -->
<!-- Title: explorer::DefaultDriveManagerState Pages: 1 -->
<svg width="154pt" height="163pt"
 viewBox="0.00 0.00 154.00 163.00" xmlns="http://www.w3.org/2000/svg" xmlns:xlink="http://www.w3.org/1999/xlink">
<g id="graph0" class="graph" transform="scale(1 1) rotate(0) translate(4 159)">
<title>explorer::DefaultDriveManagerState</title>
<polygon fill="white" stroke="none" points="-4,4 -4,-159 150,-159 150,4 -4,4"/>
<!-- Node1 -->
<g id="node1" class="node"><title>Node1</title>
<polygon fill="#bfbfbf" stroke="black" points="0,-0.5 0,-30.5 146,-30.5 146,-0.5 0,-0.5"/>
<text text-anchor="start" x="8" y="-18.5" font-family="Helvetica,sans-Serif" font-size="10.00">explorer::DefaultDriveManager</text>
<text text-anchor="middle" x="73" y="-7.5" font-family="Helvetica,sans-Serif" font-size="10.00">State</text>
</g>
<!-- Node2 -->
<g id="node2" class="node"><title>Node2</title>
<g id="a_node2"><a xlink:href="classexplorer_1_1_drive_manager_state.html" target="_top" xlink:title="explorer::DriveManagerState">
<polygon fill="white" stroke="black" points="3.5,-68.5 3.5,-87.5 142.5,-87.5 142.5,-68.5 3.5,-68.5"/>
<text text-anchor="middle" x="73" y="-75.5" font-family="Helvetica,sans-Serif" font-size="10.00">explorer::DriveManagerState</text>
</a>
</g>
</g>
<!-- Node2&#45;&gt;Node1 -->
<g id="edge1" class="edge"><title>Node2&#45;&gt;Node1</title>
<path fill="none" stroke="midnightblue" d="M73,-58.2154C73,-49.3565 73,-38.9577 73,-30.7587"/>
<polygon fill="midnightblue" stroke="midnightblue" points="69.5001,-58.3318 73,-68.3318 76.5001,-58.3319 69.5001,-58.3318"/>
</g>
<!-- Node3 -->
<g id="node3" class="node"><title>Node3</title>
<g id="a_node3"><a xlink:href="class_explorer_manager_data.html" target="_top" xlink:title="ExplorerManagerData">
<polygon fill="white" stroke="black" points="18,-135.5 18,-154.5 128,-154.5 128,-135.5 18,-135.5"/>
<text text-anchor="middle" x="73" y="-142.5" font-family="Helvetica,sans-Serif" font-size="10.00">ExplorerManagerData</text>
</a>
</g>
</g>
<!-- Node3&#45;&gt;Node2 -->
<g id="edge2" class="edge"><title>Node3&#45;&gt;Node2</title>
<path fill="none" stroke="#9a32cd" stroke-dasharray="5,2" d="M73,-125.037C73,-112.67 73,-97.1198 73,-87.6273"/>
<polygon fill="#9a32cd" stroke="#9a32cd" points="69.5001,-125.234 73,-135.234 76.5001,-125.234 69.5001,-125.234"/>
<text text-anchor="middle" x="91" y="-109" font-family="Helvetica,sans-Serif" font-size="10.00"> m_data</text>
</g>
</g>
</svg>
