<?xml version="1.0" encoding="UTF-8" standalone="no"?>
<!DOCTYPE svg PUBLIC "-//W3C//DTD SVG 1.1//EN"
 "http://www.w3.org/Graphics/SVG/1.1/DTD/svg11.dtd">
<!-- Generated by graphviz version 2.38.0 (20140413.2041)
 -->
<!-- Title: fux::thread::IRunnable Pages: 1 -->
<svg width="397pt" height="95pt"
 viewBox="0.00 0.00 396.50 95.00" xmlns="http://www.w3.org/2000/svg" xmlns:xlink="http://www.w3.org/1999/xlink">
<g id="graph0" class="graph" transform="scale(1 1) rotate(0) translate(4 91)">
<title>fux::thread::IRunnable</title>
<polygon fill="white" stroke="none" points="-4,4 -4,-91 392.5,-91 392.5,4 -4,4"/>
<!-- Node1 -->
<g id="node1" class="node"><title>Node1</title>
<polygon fill="#bfbfbf" stroke="black" points="141,-67.5 141,-86.5 252,-86.5 252,-67.5 141,-67.5"/>
<text text-anchor="middle" x="196.5" y="-74.5" font-family="Helvetica,sans-Serif" font-size="10.00">fux::thread::IRunnable</text>
</g>
<!-- Node2 -->
<g id="node2" class="node"><title>Node2</title>
<g id="a_node2"><a xlink:href="classfux_1_1thread_1_1_file_deletion_thread.html" target="_top" xlink:title="fux::thread::FileDeletion\lThread">
<polygon fill="white" stroke="black" points="0,-0.5 0,-30.5 119,-30.5 119,-0.5 0,-0.5"/>
<text text-anchor="start" x="8" y="-18.5" font-family="Helvetica,sans-Serif" font-size="10.00">fux::thread::FileDeletion</text>
<text text-anchor="middle" x="59.5" y="-7.5" font-family="Helvetica,sans-Serif" font-size="10.00">Thread</text>
</a>
</g>
</g>
<!-- Node1&#45;&gt;Node2 -->
<g id="edge1" class="edge"><title>Node1&#45;&gt;Node2</title>
<path fill="none" stroke="midnightblue" d="M167.628,-63.4605C145.437,-53.823 114.79,-40.5127 91.7882,-30.523"/>
<polygon fill="midnightblue" stroke="midnightblue" points="166.305,-66.7018 176.871,-67.4751 169.093,-60.2811 166.305,-66.7018"/>
</g>
<!-- Node3 -->
<g id="node3" class="node"><title>Node3</title>
<g id="a_node3"><a xlink:href="class_music_file_reader_thread.html" target="_top" xlink:title="Delegate for thread processing. ">
<polygon fill="white" stroke="black" points="137,-6 137,-25 256,-25 256,-6 137,-6"/>
<text text-anchor="middle" x="196.5" y="-13" font-family="Helvetica,sans-Serif" font-size="10.00">MusicFileReaderThread</text>
</a>
</g>
</g>
<!-- Node1&#45;&gt;Node3 -->
<g id="edge2" class="edge"><title>Node1&#45;&gt;Node3</title>
<path fill="none" stroke="midnightblue" d="M196.5,-57.3165C196.5,-46.4962 196.5,-33.398 196.5,-25.0091"/>
<polygon fill="midnightblue" stroke="midnightblue" points="193,-57.4751 196.5,-67.4751 200,-57.4751 193,-57.4751"/>
</g>
<!-- Node4 -->
<g id="node4" class="node"><title>Node4</title>
<g id="a_node4"><a xlink:href="class_music_file_writer_thread.html" target="_top" xlink:title="Delegate for thread process. ">
<polygon fill="white" stroke="black" points="274.5,-6 274.5,-25 388.5,-25 388.5,-6 274.5,-6"/>
<text text-anchor="middle" x="331.5" y="-13" font-family="Helvetica,sans-Serif" font-size="10.00">MusicFileWriterThread</text>
</a>
</g>
</g>
<!-- Node1&#45;&gt;Node4 -->
<g id="edge3" class="edge"><title>Node1&#45;&gt;Node4</title>
<path fill="none" stroke="midnightblue" d="M225.253,-63.3272C251.462,-51.7761 289.453,-35.0316 312.194,-25.0091"/>
<polygon fill="midnightblue" stroke="midnightblue" points="223.581,-60.2392 215.842,-67.4751 226.404,-66.6447 223.581,-60.2392"/>
</g>
</g>
</svg>
