<?xml version="1.0" encoding="UTF-8" standalone="no"?>
<!DOCTYPE svg PUBLIC "-//W3C//DTD SVG 1.1//EN"
 "http://www.w3.org/Graphics/SVG/1.1/DTD/svg11.dtd">
<!-- Generated by graphviz version 2.38.0 (20140413.2041)
 -->
<!-- Title: DropFichierImagePochetteMusique Pages: 1 -->
<svg width="238pt" height="163pt"
 viewBox="0.00 0.00 237.50 163.00" xmlns="http://www.w3.org/2000/svg" xmlns:xlink="http://www.w3.org/1999/xlink">
<g id="graph0" class="graph" transform="scale(1 1) rotate(0) translate(4 159)">
<title>DropFichierImagePochetteMusique</title>
<polygon fill="white" stroke="none" points="-4,4 -4,-159 233.5,-159 233.5,4 -4,4"/>
<!-- Node1 -->
<g id="node1" class="node"><title>Node1</title>
<polygon fill="#bfbfbf" stroke="black" points="19.5,-0.5 19.5,-30.5 150.5,-30.5 150.5,-0.5 19.5,-0.5"/>
<text text-anchor="start" x="27.5" y="-18.5" font-family="Helvetica,sans-Serif" font-size="10.00">DropFichierImagePochette</text>
<text text-anchor="middle" x="85" y="-7.5" font-family="Helvetica,sans-Serif" font-size="10.00">Musique</text>
</g>
<!-- Node2 -->
<g id="node2" class="node"><title>Node2</title>
<polygon fill="white" stroke="#bfbfbf" points="0,-78.5 0,-97.5 92,-97.5 92,-78.5 0,-78.5"/>
<text text-anchor="middle" x="46" y="-85.5" font-family="Helvetica,sans-Serif" font-size="10.00">wxFileDropTarget</text>
</g>
<!-- Node2&#45;&gt;Node1 -->
<g id="edge1" class="edge"><title>Node2&#45;&gt;Node1</title>
<path fill="none" stroke="midnightblue" d="M55.778,-69.3243C62.4069,-57.3413 71.0501,-41.7171 77.2132,-30.5762"/>
<polygon fill="midnightblue" stroke="midnightblue" points="52.5602,-67.9107 50.7822,-78.3553 58.6855,-71.2992 52.5602,-67.9107"/>
</g>
<!-- Node3 -->
<g id="node3" class="node"><title>Node3</title>
<g id="a_node3"><a xlink:href="class_image_pochette_musique.html" target="_top" xlink:title="Composant affichant une image, acceptant le Drag &amp; Drop, et ouvre le navigateur de fichier pour changer l...">
<polygon fill="white" stroke="black" points="110.5,-78.5 110.5,-97.5 229.5,-97.5 229.5,-78.5 110.5,-78.5"/>
<text text-anchor="middle" x="170" y="-85.5" font-family="Helvetica,sans-Serif" font-size="10.00">ImagePochetteMusique</text>
</a>
</g>
</g>
<!-- Node3&#45;&gt;Node1 -->
<g id="edge2" class="edge"><title>Node3&#45;&gt;Node1</title>
<path fill="none" stroke="#9a32cd" stroke-dasharray="5,2" d="M151.655,-71.7844C136.905,-59.5506 116.344,-42.497 101.971,-30.5762"/>
<polygon fill="#9a32cd" stroke="#9a32cd" points="149.646,-74.6652 159.577,-78.3553 154.115,-69.2773 149.646,-74.6652"/>
<text text-anchor="middle" x="175" y="-52" font-family="Helvetica,sans-Serif" font-size="10.00"> m_imageMusique</text>
</g>
<!-- Node4 -->
<g id="node4" class="node"><title>Node4</title>
<polygon fill="white" stroke="#bfbfbf" points="127.5,-135.5 127.5,-154.5 212.5,-154.5 212.5,-135.5 127.5,-135.5"/>
<text text-anchor="middle" x="170" y="-142.5" font-family="Helvetica,sans-Serif" font-size="10.00">wxStaticBitmap</text>
</g>
<!-- Node4&#45;&gt;Node3 -->
<g id="edge3" class="edge"><title>Node4&#45;&gt;Node3</title>
<path fill="none" stroke="midnightblue" d="M170,-125.117C170,-115.817 170,-105.056 170,-97.7149"/>
<polygon fill="midnightblue" stroke="midnightblue" points="166.5,-125.406 170,-135.406 173.5,-125.406 166.5,-125.406"/>
</g>
</g>
</svg>
