<?xml version="1.0" encoding="UTF-8" standalone="no"?>
<!DOCTYPE svg PUBLIC "-//W3C//DTD SVG 1.1//EN"
 "http://www.w3.org/Graphics/SVG/1.1/DTD/svg11.dtd">
<!-- Generated by graphviz version 2.38.0 (20140413.2041)
 -->
<!-- Title: explorer::PlaylistDriveManagerState Pages: 1 -->
<svg width="156pt" height="163pt"
 viewBox="0.00 0.00 156.00 163.00" xmlns="http://www.w3.org/2000/svg" xmlns:xlink="http://www.w3.org/1999/xlink">
<g id="graph0" class="graph" transform="scale(1 1) rotate(0) translate(4 159)">
<title>explorer::PlaylistDriveManagerState</title>
<polygon fill="white" stroke="none" points="-4,4 -4,-159 152,-159 152,4 -4,4"/>
<!-- Node1 -->
<g id="node1" class="node"><title>Node1</title>
<polygon fill="#bfbfbf" stroke="black" points="0,-0.5 0,-30.5 148,-30.5 148,-0.5 0,-0.5"/>
<text text-anchor="start" x="8" y="-18.5" font-family="Helvetica,sans-Serif" font-size="10.00">explorer::PlaylistDriveManager</text>
<text text-anchor="middle" x="74" y="-7.5" font-family="Helvetica,sans-Serif" font-size="10.00">State</text>
</g>
<!-- Node2 -->
<g id="node2" class="node"><title>Node2</title>
<g id="a_node2"><a xlink:href="classexplorer_1_1_drive_manager_state.html" target="_top" xlink:title="explorer::DriveManagerState">
<polygon fill="white" stroke="black" points="4.5,-68.5 4.5,-87.5 143.5,-87.5 143.5,-68.5 4.5,-68.5"/>
<text text-anchor="middle" x="74" y="-75.5" font-family="Helvetica,sans-Serif" font-size="10.00">explorer::DriveManagerState</text>
</a>
</g>
</g>
<!-- Node2&#45;&gt;Node1 -->
<g id="edge1" class="edge"><title>Node2&#45;&gt;Node1</title>
<path fill="none" stroke="midnightblue" d="M74,-58.2154C74,-49.3565 74,-38.9577 74,-30.7587"/>
<polygon fill="midnightblue" stroke="midnightblue" points="70.5001,-58.3318 74,-68.3318 77.5001,-58.3319 70.5001,-58.3318"/>
</g>
<!-- Node3 -->
<g id="node3" class="node"><title>Node3</title>
<g id="a_node3"><a xlink:href="class_explorer_manager_data.html" target="_top" xlink:title="ExplorerManagerData">
<polygon fill="white" stroke="black" points="19,-135.5 19,-154.5 129,-154.5 129,-135.5 19,-135.5"/>
<text text-anchor="middle" x="74" y="-142.5" font-family="Helvetica,sans-Serif" font-size="10.00">ExplorerManagerData</text>
</a>
</g>
</g>
<!-- Node3&#45;&gt;Node2 -->
<g id="edge2" class="edge"><title>Node3&#45;&gt;Node2</title>
<path fill="none" stroke="#9a32cd" stroke-dasharray="5,2" d="M74,-125.037C74,-112.67 74,-97.1198 74,-87.6273"/>
<polygon fill="#9a32cd" stroke="#9a32cd" points="70.5001,-125.234 74,-135.234 77.5001,-125.234 70.5001,-125.234"/>
<text text-anchor="middle" x="92" y="-109" font-family="Helvetica,sans-Serif" font-size="10.00"> m_data</text>
</g>
</g>
</svg>
