<?xml version="1.0" encoding="UTF-8" standalone="no"?>
<!DOCTYPE svg PUBLIC "-//W3C//DTD SVG 1.1//EN"
 "http://www.w3.org/Graphics/SVG/1.1/DTD/svg11.dtd">
<!-- Generated by graphviz version 2.38.0 (20140413.2041)
 -->
<!-- Title: MusiqueGraph Pages: 1 -->
<svg width="271pt" height="161pt"
 viewBox="0.00 0.00 270.50 161.00" xmlns="http://www.w3.org/2000/svg" xmlns:xlink="http://www.w3.org/1999/xlink">
<g id="graph0" class="graph" transform="scale(1 1) rotate(0) translate(4 157)">
<title>MusiqueGraph</title>
<polygon fill="white" stroke="none" points="-4,4 -4,-157 266.5,-157 266.5,4 -4,4"/>
<!-- Node1 -->
<g id="node1" class="node"><title>Node1</title>
<polygon fill="#bfbfbf" stroke="black" points="76.5,-0.5 76.5,-19.5 156.5,-19.5 156.5,-0.5 76.5,-0.5"/>
<text text-anchor="middle" x="116.5" y="-7.5" font-family="Helvetica,sans-Serif" font-size="10.00">MusiqueGraph</text>
</g>
<!-- Node2 -->
<g id="node2" class="node"><title>Node2</title>
<polygon fill="white" stroke="#bfbfbf" points="0,-133.5 0,-152.5 73,-152.5 73,-133.5 0,-133.5"/>
<text text-anchor="middle" x="36.5" y="-140.5" font-family="Helvetica,sans-Serif" font-size="10.00">wxGLCanvas</text>
</g>
<!-- Node2&#45;&gt;Node1 -->
<g id="edge1" class="edge"><title>Node2&#45;&gt;Node1</title>
<path fill="none" stroke="midnightblue" d="M47.1266,-124.599C64.4266,-96.2701 98.0598,-41.1959 111.127,-19.7987"/>
<polygon fill="midnightblue" stroke="midnightblue" points="43.9739,-123.046 41.749,-133.405 49.948,-126.694 43.9739,-123.046"/>
</g>
<!-- Node3 -->
<g id="node3" class="node"><title>Node3</title>
<g id="a_node3"><a xlink:href="class_couleur.html" target="_top" xlink:title="Champs RVB. ">
<polygon fill="white" stroke="black" points="91.5,-133.5 91.5,-152.5 141.5,-152.5 141.5,-133.5 91.5,-133.5"/>
<text text-anchor="middle" x="116.5" y="-140.5" font-family="Helvetica,sans-Serif" font-size="10.00">Couleur</text>
</a>
</g>
</g>
<!-- Node3&#45;&gt;Node1 -->
<g id="edge2" class="edge"><title>Node3&#45;&gt;Node1</title>
<path fill="none" stroke="#9a32cd" stroke-dasharray="5,2" d="M116.5,-123.09C116.5,-94.3564 116.5,-40.8221 116.5,-19.7987"/>
<polygon fill="#9a32cd" stroke="#9a32cd" points="113,-123.405 116.5,-133.405 120,-123.405 113,-123.405"/>
<text text-anchor="middle" x="139" y="-107" font-family="Helvetica,sans-Serif" font-size="10.00"> m_miSup</text>
<text text-anchor="middle" x="139" y="-96" font-family="Helvetica,sans-Serif" font-size="10.00">m_fond</text>
<text text-anchor="middle" x="139" y="-85" font-family="Helvetica,sans-Serif" font-size="10.00">m_miInf</text>
<text text-anchor="middle" x="139" y="-74" font-family="Helvetica,sans-Serif" font-size="10.00">m_police</text>
<text text-anchor="middle" x="139" y="-63" font-family="Helvetica,sans-Serif" font-size="10.00">m_bas</text>
<text text-anchor="middle" x="139" y="-52" font-family="Helvetica,sans-Serif" font-size="10.00">m_haut</text>
<text text-anchor="middle" x="139" y="-41" font-family="Helvetica,sans-Serif" font-size="10.00">m_barre</text>
</g>
<!-- Node4 -->
<g id="node4" class="node"><title>Node4</title>
<g id="a_node4"><a xlink:href="class_image_text.html" target="_top" xlink:title="Transforme et affiche une chaîne de caractère dans une surface OpenGL. ">
<polygon fill="white" stroke="black" points="159.5,-133.5 159.5,-152.5 221.5,-152.5 221.5,-133.5 159.5,-133.5"/>
<text text-anchor="middle" x="190.5" y="-140.5" font-family="Helvetica,sans-Serif" font-size="10.00">ImageText</text>
</a>
</g>
</g>
<!-- Node4&#45;&gt;Node1 -->
<g id="edge3" class="edge"><title>Node4&#45;&gt;Node1</title>
<path fill="none" stroke="#9a32cd" stroke-dasharray="5,2" d="M190.418,-123.297C189.404,-100.866 184.679,-63.1481 165.5,-38 159.257,-29.8134 149.783,-23.7772 140.824,-19.5142"/>
<polygon fill="#9a32cd" stroke="#9a32cd" points="186.924,-123.576 190.668,-133.487 193.922,-123.404 186.924,-123.576"/>
<text text-anchor="middle" x="226" y="-79.5" font-family="Helvetica,sans-Serif" font-size="10.00"> m_imageTemps</text>
<text text-anchor="middle" x="226" y="-68.5" font-family="Helvetica,sans-Serif" font-size="10.00">m_imageText</text>
</g>
</g>
</svg>
