<?xml version="1.0" encoding="UTF-8" standalone="no"?>
<!DOCTYPE svg PUBLIC "-//W3C//DTD SVG 1.1//EN"
 "http://www.w3.org/Graphics/SVG/1.1/DTD/svg11.dtd">
<!-- Generated by graphviz version 2.38.0 (20140413.2041)
 -->
<!-- Title: PlayList Pages: 1 -->
<svg width="303pt" height="152pt"
 viewBox="0.00 0.00 302.50 152.00" xmlns="http://www.w3.org/2000/svg" xmlns:xlink="http://www.w3.org/1999/xlink">
<g id="graph0" class="graph" transform="scale(1 1) rotate(0) translate(4 148)">
<title>PlayList</title>
<polygon fill="white" stroke="none" points="-4,4 -4,-148 298.5,-148 298.5,4 -4,4"/>
<!-- Node1 -->
<g id="node1" class="node"><title>Node1</title>
<polygon fill="#bfbfbf" stroke="black" points="104.5,-0.5 104.5,-19.5 156.5,-19.5 156.5,-0.5 104.5,-0.5"/>
<text text-anchor="middle" x="130.5" y="-7.5" font-family="Helvetica,sans-Serif" font-size="10.00">PlayList</text>
</g>
<!-- Node2 -->
<g id="node2" class="node"><title>Node2</title>
<polygon fill="white" stroke="#bfbfbf" points="0,-67.5 0,-86.5 53,-86.5 53,-67.5 0,-67.5"/>
<text text-anchor="middle" x="26.5" y="-74.5" font-family="Helvetica,sans-Serif" font-size="10.00">wxPanel</text>
</g>
<!-- Node2&#45;&gt;Node1 -->
<g id="edge1" class="edge"><title>Node2&#45;&gt;Node1</title>
<path fill="none" stroke="midnightblue" d="M49.2701,-61.7687C69.8558,-48.9026 99.4936,-30.379 116.696,-19.6273"/>
<polygon fill="midnightblue" stroke="midnightblue" points="47.1509,-58.9658 40.5259,-67.2338 50.8609,-64.9018 47.1509,-58.9658"/>
</g>
<!-- Node3 -->
<g id="node3" class="node"><title>Node3</title>
<g id="a_node3"><a xlink:href="class_image_pochette_musique.html" target="_top" xlink:title="Composant affichant une image, acceptant le Drag &amp; Drop, et ouvre le navigateur de fichier pour changer l...">
<polygon fill="white" stroke="black" points="71,-67.5 71,-86.5 190,-86.5 190,-67.5 71,-67.5"/>
<text text-anchor="middle" x="130.5" y="-74.5" font-family="Helvetica,sans-Serif" font-size="10.00">ImagePochetteMusique</text>
</a>
</g>
</g>
<!-- Node3&#45;&gt;Node1 -->
<g id="edge2" class="edge"><title>Node3&#45;&gt;Node1</title>
<path fill="none" stroke="#9a32cd" stroke-dasharray="5,2" d="M130.5,-57.037C130.5,-44.6703 130.5,-29.1198 130.5,-19.6273"/>
<polygon fill="#9a32cd" stroke="#9a32cd" points="127,-57.2338 130.5,-67.2338 134,-57.2338 127,-57.2338"/>
<text text-anchor="middle" x="158" y="-41" font-family="Helvetica,sans-Serif" font-size="10.00"> m_pochette</text>
</g>
<!-- Node4 -->
<g id="node4" class="node"><title>Node4</title>
<polygon fill="white" stroke="#bfbfbf" points="88,-124.5 88,-143.5 173,-143.5 173,-124.5 88,-124.5"/>
<text text-anchor="middle" x="130.5" y="-131.5" font-family="Helvetica,sans-Serif" font-size="10.00">wxStaticBitmap</text>
</g>
<!-- Node4&#45;&gt;Node3 -->
<g id="edge3" class="edge"><title>Node4&#45;&gt;Node3</title>
<path fill="none" stroke="midnightblue" d="M130.5,-114.117C130.5,-104.817 130.5,-94.0557 130.5,-86.7149"/>
<polygon fill="midnightblue" stroke="midnightblue" points="127,-114.406 130.5,-124.406 134,-114.406 127,-114.406"/>
</g>
<!-- Node5 -->
<g id="node5" class="node"><title>Node5</title>
<g id="a_node5"><a xlink:href="class_play_list_tableau.html" target="_top" xlink:title="Tableau (GUI) dans lequel sont affichés les informations des titres mis dans la liste de lecture...">
<polygon fill="white" stroke="black" points="208.5,-67.5 208.5,-86.5 294.5,-86.5 294.5,-67.5 208.5,-67.5"/>
<text text-anchor="middle" x="251.5" y="-74.5" font-family="Helvetica,sans-Serif" font-size="10.00">PlayListTableau</text>
</a>
</g>
</g>
<!-- Node5&#45;&gt;Node1 -->
<g id="edge4" class="edge"><title>Node5&#45;&gt;Node1</title>
<path fill="none" stroke="#9a32cd" stroke-dasharray="5,2" d="M229.809,-61.8166C218.075,-54.3728 203.215,-45.307 189.5,-38 176.874,-31.2733 162.255,-24.5758 150.728,-19.534"/>
<polygon fill="#9a32cd" stroke="#9a32cd" points="228.16,-64.9174 238.466,-67.374 231.942,-59.0266 228.16,-64.9174"/>
<text text-anchor="middle" x="227" y="-41" font-family="Helvetica,sans-Serif" font-size="10.00"> m_liste</text>
</g>
<!-- Node6 -->
<g id="node6" class="node"><title>Node6</title>
<polygon fill="white" stroke="#bfbfbf" points="222,-124.5 222,-143.5 281,-143.5 281,-124.5 222,-124.5"/>
<text text-anchor="middle" x="251.5" y="-131.5" font-family="Helvetica,sans-Serif" font-size="10.00">wxListCtrl</text>
</g>
<!-- Node6&#45;&gt;Node5 -->
<g id="edge5" class="edge"><title>Node6&#45;&gt;Node5</title>
<path fill="none" stroke="midnightblue" d="M251.5,-114.117C251.5,-104.817 251.5,-94.0557 251.5,-86.7149"/>
<polygon fill="midnightblue" stroke="midnightblue" points="248,-114.406 251.5,-124.406 255,-114.406 248,-114.406"/>
</g>
</g>
</svg>
