<?xml version="1.0" encoding="UTF-8" standalone="no"?>
<!DOCTYPE svg PUBLIC "-//W3C//DTD SVG 1.1//EN"
 "http://www.w3.org/Graphics/SVG/1.1/DTD/svg11.dtd">
<!-- Generated by graphviz version 2.38.0 (20140413.2041)
 -->
<!-- Title: explorer::DriveManagerState Pages: 1 -->
<svg width="331pt" height="186pt"
 viewBox="0.00 0.00 331.00 186.00" xmlns="http://www.w3.org/2000/svg" xmlns:xlink="http://www.w3.org/1999/xlink">
<g id="graph0" class="graph" transform="scale(1 1) rotate(0) translate(4 182)">
<title>explorer::DriveManagerState</title>
<polygon fill="white" stroke="none" points="-4,4 -4,-182 327,-182 327,4 -4,4"/>
<!-- Node1 -->
<g id="node1" class="node"><title>Node1</title>
<polygon fill="#bfbfbf" stroke="black" points="0,-79 0,-98 139,-98 139,-79 0,-79"/>
<text text-anchor="middle" x="69.5" y="-86" font-family="Helvetica,sans-Serif" font-size="10.00">explorer::DriveManagerState</text>
</g>
<!-- Node2 -->
<g id="node2" class="node"><title>Node2</title>
<g id="a_node2"><a xlink:href="classexplorer_1_1_default_drive_manager_state.html" target="_top" xlink:title="explorer::DefaultDriveManager\lState">
<polygon fill="white" stroke="black" points="176,-147.5 176,-177.5 322,-177.5 322,-147.5 176,-147.5"/>
<text text-anchor="start" x="184" y="-165.5" font-family="Helvetica,sans-Serif" font-size="10.00">explorer::DefaultDriveManager</text>
<text text-anchor="middle" x="249" y="-154.5" font-family="Helvetica,sans-Serif" font-size="10.00">State</text>
</a>
</g>
</g>
<!-- Node1&#45;&gt;Node2 -->
<g id="edge1" class="edge"><title>Node1&#45;&gt;Node2</title>
<path fill="none" stroke="midnightblue" d="M97.5927,-102.649C118.44,-113.244 148.134,-127.709 175,-138.5 182.799,-141.633 191.181,-144.677 199.386,-147.487"/>
<polygon fill="midnightblue" stroke="midnightblue" points="99.1745,-99.5264 88.6789,-98.0801 95.9818,-105.756 99.1745,-99.5264"/>
</g>
<!-- Node3 -->
<g id="node3" class="node"><title>Node3</title>
<g id="a_node3"><a xlink:href="classexplorer_1_1_dir_drive_manager_state.html" target="_top" xlink:title="explorer::DirDriveManager\lState">
<polygon fill="white" stroke="black" points="185,-98.5 185,-128.5 313,-128.5 313,-98.5 185,-98.5"/>
<text text-anchor="start" x="193" y="-116.5" font-family="Helvetica,sans-Serif" font-size="10.00">explorer::DirDriveManager</text>
<text text-anchor="middle" x="249" y="-105.5" font-family="Helvetica,sans-Serif" font-size="10.00">State</text>
</a>
</g>
</g>
<!-- Node1&#45;&gt;Node3 -->
<g id="edge2" class="edge"><title>Node1&#45;&gt;Node3</title>
<path fill="none" stroke="midnightblue" d="M148.314,-99.4597C160.563,-101.185 173.095,-102.95 184.957,-104.621"/>
<polygon fill="midnightblue" stroke="midnightblue" points="148.502,-95.9517 138.111,-98.0227 147.526,-102.883 148.502,-95.9517"/>
</g>
<!-- Node4 -->
<g id="node4" class="node"><title>Node4</title>
<g id="a_node4"><a xlink:href="classexplorer_1_1_file_drive_manager_state.html" target="_top" xlink:title="explorer::FileDriveManager\lState">
<polygon fill="white" stroke="black" points="183.5,-49.5 183.5,-79.5 314.5,-79.5 314.5,-49.5 183.5,-49.5"/>
<text text-anchor="start" x="191.5" y="-67.5" font-family="Helvetica,sans-Serif" font-size="10.00">explorer::FileDriveManager</text>
<text text-anchor="middle" x="249" y="-56.5" font-family="Helvetica,sans-Serif" font-size="10.00">State</text>
</a>
</g>
</g>
<!-- Node1&#45;&gt;Node4 -->
<g id="edge3" class="edge"><title>Node1&#45;&gt;Node4</title>
<path fill="none" stroke="midnightblue" d="M149.104,-77.8719C160.546,-76.3248 172.217,-74.7468 183.341,-73.2427"/>
<polygon fill="midnightblue" stroke="midnightblue" points="148.567,-74.4125 139.126,-79.221 149.505,-81.3494 148.567,-74.4125"/>
</g>
<!-- Node5 -->
<g id="node5" class="node"><title>Node5</title>
<g id="a_node5"><a xlink:href="classexplorer_1_1_playlist_drive_manager_state.html" target="_top" xlink:title="explorer::PlaylistDriveManager\lState">
<polygon fill="white" stroke="black" points="175,-0.5 175,-30.5 323,-30.5 323,-0.5 175,-0.5"/>
<text text-anchor="start" x="183" y="-18.5" font-family="Helvetica,sans-Serif" font-size="10.00">explorer::PlaylistDriveManager</text>
<text text-anchor="middle" x="249" y="-7.5" font-family="Helvetica,sans-Serif" font-size="10.00">State</text>
</a>
</g>
</g>
<!-- Node1&#45;&gt;Node5 -->
<g id="edge4" class="edge"><title>Node1&#45;&gt;Node5</title>
<path fill="none" stroke="midnightblue" d="M99.1193,-74.4083C119.932,-64.394 148.914,-50.9273 175,-40.5 183.583,-37.0692 192.843,-33.6716 201.79,-30.5386"/>
<polygon fill="midnightblue" stroke="midnightblue" points="97.3625,-71.3702 89.8896,-78.8806 100.415,-77.6696 97.3625,-71.3702"/>
</g>
</g>
</svg>
