<?xml version="1.0" encoding="UTF-8" standalone="no"?>
<!DOCTYPE svg PUBLIC "-//W3C//DTD SVG 1.1//EN"
 "http://www.w3.org/Graphics/SVG/1.1/DTD/svg11.dtd">
<!-- Generated by graphviz version 2.38.0 (20140413.2041)
 -->
<!-- Title: AbstractMusicManagerDecorator Pages: 1 -->
<svg width="332pt" height="140pt"
 viewBox="0.00 0.00 331.50 140.00" xmlns="http://www.w3.org/2000/svg" xmlns:xlink="http://www.w3.org/1999/xlink">
<g id="graph0" class="graph" transform="scale(1 1) rotate(0) translate(4 136)">
<title>AbstractMusicManagerDecorator</title>
<polygon fill="white" stroke="none" points="-4,4 -4,-136 327.5,-136 327.5,4 -4,4"/>
<!-- Node1 -->
<g id="node1" class="node"><title>Node1</title>
<polygon fill="#bfbfbf" stroke="black" points="81.5,-56.5 81.5,-75.5 240.5,-75.5 240.5,-56.5 81.5,-56.5"/>
<text text-anchor="middle" x="161" y="-63.5" font-family="Helvetica,sans-Serif" font-size="10.00">AbstractMusicManagerDecorator</text>
</g>
<!-- Node3 -->
<g id="node3" class="node"><title>Node3</title>
<g id="a_node3"><a xlink:href="class_music_manager_default_decorator.html" target="_top" xlink:title="MusicManagerDefaultDecorator">
<polygon fill="white" stroke="black" points="0,-0.5 0,-19.5 152,-19.5 152,-0.5 0,-0.5"/>
<text text-anchor="middle" x="76" y="-7.5" font-family="Helvetica,sans-Serif" font-size="10.00">MusicManagerDefaultDecorator</text>
</a>
</g>
</g>
<!-- Node1&#45;&gt;Node3 -->
<g id="edge2" class="edge"><title>Node1&#45;&gt;Node3</title>
<path fill="none" stroke="midnightblue" d="M138.806,-50.9005C123.22,-40.9986 102.87,-28.0705 89.6228,-19.6545"/>
<polygon fill="midnightblue" stroke="midnightblue" points="137.026,-53.9158 147.343,-56.324 140.779,-48.0073 137.026,-53.9158"/>
</g>
<!-- Node4 -->
<g id="node4" class="node"><title>Node4</title>
<g id="a_node4"><a xlink:href="class_music_manager_search_decorator.html" target="_top" xlink:title="MusicManagerSearchDecorator">
<polygon fill="white" stroke="black" points="170.5,-0.5 170.5,-19.5 323.5,-19.5 323.5,-0.5 170.5,-0.5"/>
<text text-anchor="middle" x="247" y="-7.5" font-family="Helvetica,sans-Serif" font-size="10.00">MusicManagerSearchDecorator</text>
</a>
</g>
</g>
<!-- Node1&#45;&gt;Node4 -->
<g id="edge3" class="edge"><title>Node1&#45;&gt;Node4</title>
<path fill="none" stroke="midnightblue" d="M183.455,-50.9005C199.224,-40.9986 219.814,-28.0705 233.217,-19.6545"/>
<polygon fill="midnightblue" stroke="midnightblue" points="181.425,-48.0421 174.817,-56.324 185.148,-53.9704 181.425,-48.0421"/>
</g>
<!-- Node2 -->
<g id="node2" class="node"><title>Node2</title>
<g id="a_node2"><a xlink:href="class_i_music_manager.html" target="_top" xlink:title="IMusicManager">
<polygon fill="white" stroke="black" points="119.5,-112.5 119.5,-131.5 202.5,-131.5 202.5,-112.5 119.5,-112.5"/>
<text text-anchor="middle" x="161" y="-119.5" font-family="Helvetica,sans-Serif" font-size="10.00">IMusicManager</text>
</a>
</g>
</g>
<!-- Node2&#45;&gt;Node1 -->
<g id="edge1" class="edge"><title>Node2&#45;&gt;Node1</title>
<path fill="none" stroke="midnightblue" d="M161,-101.805C161,-92.9102 161,-82.7798 161,-75.7511"/>
<polygon fill="midnightblue" stroke="midnightblue" points="157.5,-102.083 161,-112.083 164.5,-102.083 157.5,-102.083"/>
</g>
</g>
</svg>
