<?xml version="1.0" encoding="UTF-8" standalone="no"?>
<!DOCTYPE svg PUBLIC "-//W3C//DTD SVG 1.1//EN"
 "http://www.w3.org/Graphics/SVG/1.1/DTD/svg11.dtd">
<!-- Generated by graphviz version 2.38.0 (20140413.2041)
 -->
<!-- Title: BDDThread Pages: 1 -->
<svg width="122pt" height="95pt"
 viewBox="0.00 0.00 122.00 95.00" xmlns="http://www.w3.org/2000/svg" xmlns:xlink="http://www.w3.org/1999/xlink">
<g id="graph0" class="graph" transform="scale(1 1) rotate(0) translate(4 91)">
<title>BDDThread</title>
<polygon fill="white" stroke="none" points="-4,4 -4,-91 118,-91 118,4 -4,4"/>
<!-- Node1 -->
<g id="node1" class="node"><title>Node1</title>
<polygon fill="#bfbfbf" stroke="black" points="29,-0.5 29,-19.5 95,-19.5 95,-0.5 29,-0.5"/>
<text text-anchor="middle" x="62" y="-7.5" font-family="Helvetica,sans-Serif" font-size="10.00">BDDThread</text>
</g>
<!-- Node2 -->
<g id="node2" class="node"><title>Node2</title>
<polygon fill="white" stroke="#bfbfbf" points="0,-67.5 0,-86.5 58,-86.5 58,-67.5 0,-67.5"/>
<text text-anchor="middle" x="29" y="-74.5" font-family="Helvetica,sans-Serif" font-size="10.00">wxThread</text>
</g>
<!-- Node2&#45;&gt;Node1 -->
<g id="edge1" class="edge"><title>Node2&#45;&gt;Node1</title>
<path fill="none" stroke="midnightblue" d="M38.0555,-58.1635C44.4196,-45.6281 52.6532,-29.4104 57.62,-19.6273"/>
<polygon fill="midnightblue" stroke="midnightblue" points="34.8567,-56.7327 33.4505,-67.2338 41.0983,-59.9016 34.8567,-56.7327"/>
</g>
<!-- Node3 -->
<g id="node3" class="node"><title>Node3</title>
<g id="a_node3"><a xlink:href="class_b_d_d.html" target="_top" xlink:title="Représente la base de données de Fu(X) (ou l&#39;audiothèque) ">
<polygon fill="white" stroke="black" points="76.5,-67.5 76.5,-86.5 113.5,-86.5 113.5,-67.5 76.5,-67.5"/>
<text text-anchor="middle" x="95" y="-74.5" font-family="Helvetica,sans-Serif" font-size="10.00">BDD</text>
</a>
</g>
</g>
<!-- Node3&#45;&gt;Node1 -->
<g id="edge2" class="edge"><title>Node3&#45;&gt;Node1</title>
<path fill="none" stroke="#9a32cd" stroke-dasharray="5,2" d="M85.9445,-58.1635C79.5804,-45.6281 71.3468,-29.4104 66.38,-19.6273"/>
<polygon fill="#9a32cd" stroke="#9a32cd" points="82.9017,-59.9016 90.5495,-67.2338 89.1433,-56.7327 82.9017,-59.9016"/>
<text text-anchor="middle" x="97.5" y="-41" font-family="Helvetica,sans-Serif" font-size="10.00"> m_bdd</text>
</g>
</g>
</svg>
