<?xml version="1.0" encoding="UTF-8" standalone="no"?>
<!DOCTYPE svg PUBLIC "-//W3C//DTD SVG 1.1//EN"
 "http://www.w3.org/Graphics/SVG/1.1/DTD/svg11.dtd">
<!-- Generated by graphviz version 2.38.0 (20140413.2041)
 -->
<!-- Title: C:/Workspace/Projects/fux/include/GUI Pages: 1 -->
<svg width="616pt" height="111pt"
 viewBox="0.00 0.00 616.00 111.00" xmlns="http://www.w3.org/2000/svg" xmlns:xlink="http://www.w3.org/1999/xlink">
<g id="graph0" class="graph" transform="scale(1 1) rotate(0) translate(4 107)">
<title>C:/Workspace/Projects/fux/include/GUI</title>
<polygon fill="white" stroke="none" points="-4,4 -4,-107 612,-107 612,4 -4,4"/>
<g id="clust1" class="cluster"><title>clusterdir_d44c64559bbebec7f509842c48db8b23</title>
<g id="a_clust1"><a xlink:href="dir_d44c64559bbebec7f509842c48db8b23.html" target="_top" xlink:title="include">
<polygon fill="#ddddee" stroke="black" points="8,-8 8,-95 600,-95 600,-8 8,-8"/>
<text text-anchor="middle" x="304" y="-83" font-family="Helvetica,sans-Serif" font-size="10.00">include</text>
</a>
</g>
</g>
<g id="clust2" class="cluster"><title>clusterdir_f938830485ea5fc932d9051b851477f4</title>
<g id="a_clust2"><a xlink:href="dir_f938830485ea5fc932d9051b851477f4.html" target="_top">
<polygon fill="#eeeeff" stroke="black" points="16,-16 16,-68 592,-68 592,-16 16,-16"/>
</a>
</g>
</g>
<!-- dir_f938830485ea5fc932d9051b851477f4 -->
<g id="node1" class="node"><title>dir_f938830485ea5fc932d9051b851477f4</title>
<text text-anchor="middle" x="557" y="-39.5" font-family="Helvetica,sans-Serif" font-size="10.00">GUI</text>
</g>
<!-- dir_06293f3ae31b67c758c7c6fad26dba66 -->
<g id="node2" class="node"><title>dir_06293f3ae31b67c758c7c6fad26dba66</title>
<g id="a_node2"><a xlink:href="dir_06293f3ae31b67c758c7c6fad26dba66.html" target="_top" xlink:title="dialogs">
<polygon fill="white" stroke="black" points="512,-60 458,-60 458,-24 512,-24 512,-60"/>
<text text-anchor="middle" x="485" y="-39.5" font-family="Helvetica,sans-Serif" font-size="10.00">dialogs</text>
</a>
</g>
</g>
<!-- dir_83cbe36c66910b43e9a6bddd118bdc66 -->
<g id="node3" class="node"><title>dir_83cbe36c66910b43e9a6bddd118bdc66</title>
<g id="a_node3"><a xlink:href="dir_83cbe36c66910b43e9a6bddd118bdc66.html" target="_top" xlink:title="explorer">
<polygon fill="white" stroke="black" points="440,-60 386,-60 386,-24 440,-24 440,-60"/>
<text text-anchor="middle" x="413" y="-39.5" font-family="Helvetica,sans-Serif" font-size="10.00">explorer</text>
</a>
</g>
</g>
<!-- dir_946b739703e9e2a6e41daf1376a06a2a -->
<g id="node4" class="node"><title>dir_946b739703e9e2a6e41daf1376a06a2a</title>
<g id="a_node4"><a xlink:href="dir_946b739703e9e2a6e41daf1376a06a2a.html" target="_top" xlink:title="graph">
<polygon fill="white" stroke="black" points="368,-60 314,-60 314,-24 368,-24 368,-60"/>
<text text-anchor="middle" x="341" y="-39.5" font-family="Helvetica,sans-Serif" font-size="10.00">graph</text>
</a>
</g>
</g>
<!-- dir_224c1238e40deee65a807bf24ef3d2c8 -->
<g id="node5" class="node"><title>dir_224c1238e40deee65a807bf24ef3d2c8</title>
<g id="a_node5"><a xlink:href="dir_224c1238e40deee65a807bf24ef3d2c8.html" target="_top" xlink:title="musiclist">
<polygon fill="white" stroke="black" points="296,-60 240,-60 240,-24 296,-24 296,-60"/>
<text text-anchor="middle" x="268" y="-39.5" font-family="Helvetica,sans-Serif" font-size="10.00">musiclist</text>
</a>
</g>
</g>
<!-- dir_cb58eee146f7f50f60dae7707265e411 -->
<g id="node6" class="node"><title>dir_cb58eee146f7f50f60dae7707265e411</title>
<g id="a_node6"><a xlink:href="dir_cb58eee146f7f50f60dae7707265e411.html" target="_top" xlink:title="settings">
<polygon fill="white" stroke="black" points="222,-60 168,-60 168,-24 222,-24 222,-60"/>
<text text-anchor="middle" x="195" y="-39.5" font-family="Helvetica,sans-Serif" font-size="10.00">settings</text>
</a>
</g>
</g>
<!-- dir_f639a8202d2e786c68b27d91251a2155 -->
<g id="node7" class="node"><title>dir_f639a8202d2e786c68b27d91251a2155</title>
<g id="a_node7"><a xlink:href="dir_f639a8202d2e786c68b27d91251a2155.html" target="_top" xlink:title="tools">
<polygon fill="white" stroke="black" points="150,-60 96,-60 96,-24 150,-24 150,-60"/>
<text text-anchor="middle" x="123" y="-39.5" font-family="Helvetica,sans-Serif" font-size="10.00">tools</text>
</a>
</g>
</g>
<!-- dir_7ed55d69028d582b6f08c6edb82c02d3 -->
<g id="node8" class="node"><title>dir_7ed55d69028d582b6f08c6edb82c02d3</title>
<g id="a_node8"><a xlink:href="dir_7ed55d69028d582b6f08c6edb82c02d3.html" target="_top" xlink:title="widgets">
<polygon fill="white" stroke="black" points="78,-60 24,-60 24,-24 78,-24 78,-60"/>
<text text-anchor="middle" x="51" y="-39.5" font-family="Helvetica,sans-Serif" font-size="10.00">widgets</text>
</a>
</g>
</g>
</g>
</svg>
