<?xml version="1.0" encoding="UTF-8" standalone="no"?>
<!DOCTYPE svg PUBLIC "-//W3C//DTD SVG 1.1//EN"
 "http://www.w3.org/Graphics/SVG/1.1/DTD/svg11.dtd">
<!-- Generated by graphviz version 2.38.0 (20140413.2041)
 -->
<!-- Title: C:/Workspace/Projects/fux/include Pages: 1 -->
<svg width="837pt" height="76pt"
 viewBox="0.00 0.00 837.00 76.00" xmlns="http://www.w3.org/2000/svg" xmlns:xlink="http://www.w3.org/1999/xlink">
<g id="graph0" class="graph" transform="scale(1 1) rotate(0) translate(4 72)">
<title>C:/Workspace/Projects/fux/include</title>
<polygon fill="white" stroke="none" points="-4,4 -4,-72 833,-72 833,4 -4,4"/>
<g id="clust1" class="cluster"><title>clusterdir_d44c64559bbebec7f509842c48db8b23</title>
<g id="a_clust1"><a xlink:href="dir_d44c64559bbebec7f509842c48db8b23.html" target="_top">
<polygon fill="#eeeeff" stroke="black" points="8,-8 8,-60 821,-60 821,-8 8,-8"/>
</a>
</g>
</g>
<!-- dir_d44c64559bbebec7f509842c48db8b23 -->
<g id="node1" class="node"><title>dir_d44c64559bbebec7f509842c48db8b23</title>
<text text-anchor="middle" x="786" y="-31.5" font-family="Helvetica,sans-Serif" font-size="10.00">include</text>
</g>
<!-- dir_0905a5bd6d6fe3014f1bc7b1fd731555 -->
<g id="node2" class="node"><title>dir_0905a5bd6d6fe3014f1bc7b1fd731555</title>
<g id="a_node2"><a xlink:href="dir_0905a5bd6d6fe3014f1bc7b1fd731555.html" target="_top" xlink:title="application">
<polygon fill="white" stroke="black" points="740.5,-52 677.5,-52 677.5,-16 740.5,-16 740.5,-52"/>
<text text-anchor="middle" x="709" y="-31.5" font-family="Helvetica,sans-Serif" font-size="10.00">application</text>
</a>
</g>
</g>
<!-- dir_88daf05616196eb210c6c538937e567d -->
<g id="node3" class="node"><title>dir_88daf05616196eb210c6c538937e567d</title>
<g id="a_node3"><a xlink:href="dir_88daf05616196eb210c6c538937e567d.html" target="_top" xlink:title="constants">
<polygon fill="white" stroke="black" points="659.5,-52 600.5,-52 600.5,-16 659.5,-16 659.5,-52"/>
<text text-anchor="middle" x="630" y="-31.5" font-family="Helvetica,sans-Serif" font-size="10.00">constants</text>
</a>
</g>
</g>
<!-- dir_b9635e7b6d5f225ac0f930b21f213d87 -->
<g id="node4" class="node"><title>dir_b9635e7b6d5f225ac0f930b21f213d87</title>
<g id="a_node4"><a xlink:href="dir_b9635e7b6d5f225ac0f930b21f213d87.html" target="_top" xlink:title="db">
<polygon fill="white" stroke="black" points="582,-52 528,-52 528,-16 582,-16 582,-52"/>
<text text-anchor="middle" x="555" y="-31.5" font-family="Helvetica,sans-Serif" font-size="10.00">db</text>
</a>
</g>
</g>
<!-- dir_3e12035cddfeaa64c71eb203d54d0f88 -->
<g id="node5" class="node"><title>dir_3e12035cddfeaa64c71eb203d54d0f88</title>
<g id="a_node5"><a xlink:href="dir_3e12035cddfeaa64c71eb203d54d0f88.html" target="_top" xlink:title="explorer">
<polygon fill="white" stroke="red" points="510,-52 456,-52 456,-16 510,-16 510,-52"/>
<text text-anchor="middle" x="483" y="-31.5" font-family="Helvetica,sans-Serif" font-size="10.00">explorer</text>
</a>
</g>
</g>
<!-- dir_f938830485ea5fc932d9051b851477f4 -->
<g id="node6" class="node"><title>dir_f938830485ea5fc932d9051b851477f4</title>
<g id="a_node6"><a xlink:href="dir_f938830485ea5fc932d9051b851477f4.html" target="_top" xlink:title="GUI">
<polygon fill="white" stroke="red" points="438,-52 384,-52 384,-16 438,-16 438,-52"/>
<text text-anchor="middle" x="411" y="-31.5" font-family="Helvetica,sans-Serif" font-size="10.00">GUI</text>
</a>
</g>
</g>
<!-- dir_bef5442c0c96b47669dde4af199f024d -->
<g id="node7" class="node"><title>dir_bef5442c0c96b47669dde4af199f024d</title>
<g id="a_node7"><a xlink:href="dir_bef5442c0c96b47669dde4af199f024d.html" target="_top" xlink:title="music">
<polygon fill="white" stroke="black" points="366,-52 312,-52 312,-16 366,-16 366,-52"/>
<text text-anchor="middle" x="339" y="-31.5" font-family="Helvetica,sans-Serif" font-size="10.00">music</text>
</a>
</g>
</g>
<!-- dir_dafb25a37831a87d2e2e8b780f24e872 -->
<g id="node8" class="node"><title>dir_dafb25a37831a87d2e2e8b780f24e872</title>
<g id="a_node8"><a xlink:href="dir_dafb25a37831a87d2e2e8b780f24e872.html" target="_top" xlink:title="network">
<polygon fill="white" stroke="black" points="294,-52 240,-52 240,-16 294,-16 294,-52"/>
<text text-anchor="middle" x="267" y="-31.5" font-family="Helvetica,sans-Serif" font-size="10.00">network</text>
</a>
</g>
</g>
<!-- dir_e1ea4397d79b499f5c8ec49a7873dff7 -->
<g id="node9" class="node"><title>dir_e1ea4397d79b499f5c8ec49a7873dff7</title>
<g id="a_node9"><a xlink:href="dir_e1ea4397d79b499f5c8ec49a7873dff7.html" target="_top" xlink:title="predicates">
<polygon fill="white" stroke="black" points="222,-52 160,-52 160,-16 222,-16 222,-52"/>
<text text-anchor="middle" x="191" y="-31.5" font-family="Helvetica,sans-Serif" font-size="10.00">predicates</text>
</a>
</g>
</g>
<!-- dir_2102881fd67b5a0842b9e2959cf5e039 -->
<g id="node10" class="node"><title>dir_2102881fd67b5a0842b9e2959cf5e039</title>
<g id="a_node10"><a xlink:href="dir_2102881fd67b5a0842b9e2959cf5e039.html" target="_top" xlink:title="settings">
<polygon fill="white" stroke="black" points="142,-52 88,-52 88,-16 142,-16 142,-52"/>
<text text-anchor="middle" x="115" y="-31.5" font-family="Helvetica,sans-Serif" font-size="10.00">settings</text>
</a>
</g>
</g>
<!-- dir_db22b1395f615d1428e10e22469fe87b -->
<g id="node11" class="node"><title>dir_db22b1395f615d1428e10e22469fe87b</title>
<g id="a_node11"><a xlink:href="dir_db22b1395f615d1428e10e22469fe87b.html" target="_top" xlink:title="tools">
<polygon fill="white" stroke="red" points="70,-52 16,-52 16,-16 70,-16 70,-52"/>
<text text-anchor="middle" x="43" y="-31.5" font-family="Helvetica,sans-Serif" font-size="10.00">tools</text>
</a>
</g>
</g>
</g>
</svg>
