<?xml version="1.0" encoding="UTF-8" standalone="no"?>
<!DOCTYPE svg PUBLIC "-//W3C//DTD SVG 1.1//EN"
 "http://www.w3.org/Graphics/SVG/1.1/DTD/svg11.dtd">
<!-- Generated by graphviz version 2.38.0 (20140413.2041)
 -->
<!-- Title: C:/Workspace/Projects/fux/src/GUI Pages: 1 -->
<svg width="616pt" height="111pt"
 viewBox="0.00 0.00 616.00 111.00" xmlns="http://www.w3.org/2000/svg" xmlns:xlink="http://www.w3.org/1999/xlink">
<g id="graph0" class="graph" transform="scale(1 1) rotate(0) translate(4 107)">
<title>C:/Workspace/Projects/fux/src/GUI</title>
<polygon fill="white" stroke="none" points="-4,4 -4,-107 612,-107 612,4 -4,4"/>
<g id="clust1" class="cluster"><title>clusterdir_68267d1309a1af8e8297ef4c3efbcdba</title>
<g id="a_clust1"><a xlink:href="dir_68267d1309a1af8e8297ef4c3efbcdba.html" target="_top" xlink:title="src">
<polygon fill="#ddddee" stroke="black" points="8,-8 8,-95 600,-95 600,-8 8,-8"/>
<text text-anchor="middle" x="304" y="-83" font-family="Helvetica,sans-Serif" font-size="10.00">src</text>
</a>
</g>
</g>
<g id="clust2" class="cluster"><title>clusterdir_4e4e2e75df7fa6971448b424c011c8b5</title>
<g id="a_clust2"><a xlink:href="dir_4e4e2e75df7fa6971448b424c011c8b5.html" target="_top">
<polygon fill="#eeeeff" stroke="black" points="16,-16 16,-68 592,-68 592,-16 16,-16"/>
</a>
</g>
</g>
<!-- dir_4e4e2e75df7fa6971448b424c011c8b5 -->
<g id="node1" class="node"><title>dir_4e4e2e75df7fa6971448b424c011c8b5</title>
<text text-anchor="middle" x="557" y="-39.5" font-family="Helvetica,sans-Serif" font-size="10.00">GUI</text>
</g>
<!-- dir_c29cbd4fa3bf5862797ff4207ef1bb34 -->
<g id="node2" class="node"><title>dir_c29cbd4fa3bf5862797ff4207ef1bb34</title>
<g id="a_node2"><a xlink:href="dir_c29cbd4fa3bf5862797ff4207ef1bb34.html" target="_top" xlink:title="dialogs">
<polygon fill="white" stroke="black" points="512,-60 458,-60 458,-24 512,-24 512,-60"/>
<text text-anchor="middle" x="485" y="-39.5" font-family="Helvetica,sans-Serif" font-size="10.00">dialogs</text>
</a>
</g>
</g>
<!-- dir_294b8550cdaba48f3550f5fbf434694a -->
<g id="node3" class="node"><title>dir_294b8550cdaba48f3550f5fbf434694a</title>
<g id="a_node3"><a xlink:href="dir_294b8550cdaba48f3550f5fbf434694a.html" target="_top" xlink:title="explorer">
<polygon fill="white" stroke="black" points="440,-60 386,-60 386,-24 440,-24 440,-60"/>
<text text-anchor="middle" x="413" y="-39.5" font-family="Helvetica,sans-Serif" font-size="10.00">explorer</text>
</a>
</g>
</g>
<!-- dir_e5f3c0774eea3666d6fa63bbb1b97406 -->
<g id="node4" class="node"><title>dir_e5f3c0774eea3666d6fa63bbb1b97406</title>
<g id="a_node4"><a xlink:href="dir_e5f3c0774eea3666d6fa63bbb1b97406.html" target="_top" xlink:title="graph">
<polygon fill="white" stroke="black" points="368,-60 314,-60 314,-24 368,-24 368,-60"/>
<text text-anchor="middle" x="341" y="-39.5" font-family="Helvetica,sans-Serif" font-size="10.00">graph</text>
</a>
</g>
</g>
<!-- dir_349cfea1aa759d8c57886a0c64fb2ea0 -->
<g id="node5" class="node"><title>dir_349cfea1aa759d8c57886a0c64fb2ea0</title>
<g id="a_node5"><a xlink:href="dir_349cfea1aa759d8c57886a0c64fb2ea0.html" target="_top" xlink:title="musiclist">
<polygon fill="white" stroke="black" points="296,-60 240,-60 240,-24 296,-24 296,-60"/>
<text text-anchor="middle" x="268" y="-39.5" font-family="Helvetica,sans-Serif" font-size="10.00">musiclist</text>
</a>
</g>
</g>
<!-- dir_9f31a6f6b8d7b2b65504263a53142d4c -->
<g id="node6" class="node"><title>dir_9f31a6f6b8d7b2b65504263a53142d4c</title>
<g id="a_node6"><a xlink:href="dir_9f31a6f6b8d7b2b65504263a53142d4c.html" target="_top" xlink:title="settings">
<polygon fill="white" stroke="black" points="222,-60 168,-60 168,-24 222,-24 222,-60"/>
<text text-anchor="middle" x="195" y="-39.5" font-family="Helvetica,sans-Serif" font-size="10.00">settings</text>
</a>
</g>
</g>
<!-- dir_6f06c377cb386b26cacf866723c61553 -->
<g id="node7" class="node"><title>dir_6f06c377cb386b26cacf866723c61553</title>
<g id="a_node7"><a xlink:href="dir_6f06c377cb386b26cacf866723c61553.html" target="_top" xlink:title="tools">
<polygon fill="white" stroke="black" points="150,-60 96,-60 96,-24 150,-24 150,-60"/>
<text text-anchor="middle" x="123" y="-39.5" font-family="Helvetica,sans-Serif" font-size="10.00">tools</text>
</a>
</g>
</g>
<!-- dir_2f92a68126289cf92f574f2557580371 -->
<g id="node8" class="node"><title>dir_2f92a68126289cf92f574f2557580371</title>
<g id="a_node8"><a xlink:href="dir_2f92a68126289cf92f574f2557580371.html" target="_top" xlink:title="widgets">
<polygon fill="white" stroke="black" points="78,-60 24,-60 24,-24 78,-24 78,-60"/>
<text text-anchor="middle" x="51" y="-39.5" font-family="Helvetica,sans-Serif" font-size="10.00">widgets</text>
</a>
</g>
</g>
</g>
</svg>
