<?xml version="1.0" encoding="UTF-8" standalone="no"?>
<!DOCTYPE svg PUBLIC "-//W3C//DTD SVG 1.1//EN"
 "http://www.w3.org/Graphics/SVG/1.1/DTD/svg11.dtd">
<!-- Generated by graphviz version 2.38.0 (20140413.2041)
 -->
<!-- Title: C:/Workspace/Projects/fux/src Pages: 1 -->
<svg width="844pt" height="76pt"
 viewBox="0.00 0.00 844.00 76.00" xmlns="http://www.w3.org/2000/svg" xmlns:xlink="http://www.w3.org/1999/xlink">
<g id="graph0" class="graph" transform="scale(1 1) rotate(0) translate(4 72)">
<title>C:/Workspace/Projects/fux/src</title>
<polygon fill="white" stroke="none" points="-4,4 -4,-72 840,-72 840,4 -4,4"/>
<g id="clust1" class="cluster"><title>clusterdir_68267d1309a1af8e8297ef4c3efbcdba</title>
<g id="a_clust1"><a xlink:href="dir_68267d1309a1af8e8297ef4c3efbcdba.html" target="_top">
<polygon fill="#eeeeff" stroke="black" points="8,-8 8,-60 828,-60 828,-8 8,-8"/>
</a>
</g>
</g>
<!-- dir_68267d1309a1af8e8297ef4c3efbcdba -->
<g id="node1" class="node"><title>dir_68267d1309a1af8e8297ef4c3efbcdba</title>
<text text-anchor="middle" x="793" y="-31.5" font-family="Helvetica,sans-Serif" font-size="10.00">src</text>
</g>
<!-- dir_844f6ab5c2ae79211596f3dcdd81adb7 -->
<g id="node2" class="node"><title>dir_844f6ab5c2ae79211596f3dcdd81adb7</title>
<g id="a_node2"><a xlink:href="dir_844f6ab5c2ae79211596f3dcdd81adb7.html" target="_top" xlink:title="application">
<polygon fill="white" stroke="black" points="747.5,-52 684.5,-52 684.5,-16 747.5,-16 747.5,-52"/>
<text text-anchor="middle" x="716" y="-31.5" font-family="Helvetica,sans-Serif" font-size="10.00">application</text>
</a>
</g>
</g>
<!-- dir_18fd539062cd3a2de3dfd78991cf728d -->
<g id="node3" class="node"><title>dir_18fd539062cd3a2de3dfd78991cf728d</title>
<g id="a_node3"><a xlink:href="dir_18fd539062cd3a2de3dfd78991cf728d.html" target="_top" xlink:title="db">
<polygon fill="white" stroke="black" points="666,-52 612,-52 612,-16 666,-16 666,-52"/>
<text text-anchor="middle" x="639" y="-31.5" font-family="Helvetica,sans-Serif" font-size="10.00">db</text>
</a>
</g>
</g>
<!-- dir_ff75c1e080194f017f10c1d4ab6764ee -->
<g id="node4" class="node"><title>dir_ff75c1e080194f017f10c1d4ab6764ee</title>
<g id="a_node4"><a xlink:href="dir_ff75c1e080194f017f10c1d4ab6764ee.html" target="_top" xlink:title="explorer">
<polygon fill="white" stroke="red" points="594,-52 540,-52 540,-16 594,-16 594,-52"/>
<text text-anchor="middle" x="567" y="-31.5" font-family="Helvetica,sans-Serif" font-size="10.00">explorer</text>
</a>
</g>
</g>
<!-- dir_4e4e2e75df7fa6971448b424c011c8b5 -->
<g id="node5" class="node"><title>dir_4e4e2e75df7fa6971448b424c011c8b5</title>
<g id="a_node5"><a xlink:href="dir_4e4e2e75df7fa6971448b424c011c8b5.html" target="_top" xlink:title="GUI">
<polygon fill="white" stroke="red" points="522,-52 468,-52 468,-16 522,-16 522,-52"/>
<text text-anchor="middle" x="495" y="-31.5" font-family="Helvetica,sans-Serif" font-size="10.00">GUI</text>
</a>
</g>
</g>
<!-- dir_cc94bbbd6458851dcc70e30eea527aa9 -->
<g id="node6" class="node"><title>dir_cc94bbbd6458851dcc70e30eea527aa9</title>
<g id="a_node6"><a xlink:href="dir_cc94bbbd6458851dcc70e30eea527aa9.html" target="_top" xlink:title="music">
<polygon fill="white" stroke="black" points="450,-52 396,-52 396,-16 450,-16 450,-52"/>
<text text-anchor="middle" x="423" y="-31.5" font-family="Helvetica,sans-Serif" font-size="10.00">music</text>
</a>
</g>
</g>
<!-- dir_fc4c7f03e1a69a98c370fae55a743828 -->
<g id="node7" class="node"><title>dir_fc4c7f03e1a69a98c370fae55a743828</title>
<g id="a_node7"><a xlink:href="dir_fc4c7f03e1a69a98c370fae55a743828.html" target="_top" xlink:title="network">
<polygon fill="white" stroke="black" points="378,-52 324,-52 324,-16 378,-16 378,-52"/>
<text text-anchor="middle" x="351" y="-31.5" font-family="Helvetica,sans-Serif" font-size="10.00">network</text>
</a>
</g>
</g>
<!-- dir_c1c893c91ca02d934d07bb0f5a2ce590 -->
<g id="node8" class="node"><title>dir_c1c893c91ca02d934d07bb0f5a2ce590</title>
<g id="a_node8"><a xlink:href="dir_c1c893c91ca02d934d07bb0f5a2ce590.html" target="_top" xlink:title="predicates">
<polygon fill="white" stroke="black" points="306,-52 244,-52 244,-16 306,-16 306,-52"/>
<text text-anchor="middle" x="275" y="-31.5" font-family="Helvetica,sans-Serif" font-size="10.00">predicates</text>
</a>
</g>
</g>
<!-- dir_4cc1cec685e65bd8de2ecee2abd9d05a -->
<g id="node9" class="node"><title>dir_4cc1cec685e65bd8de2ecee2abd9d05a</title>
<g id="a_node9"><a xlink:href="dir_4cc1cec685e65bd8de2ecee2abd9d05a.html" target="_top" xlink:title="ressources">
<polygon fill="white" stroke="black" points="225.5,-52 160.5,-52 160.5,-16 225.5,-16 225.5,-52"/>
<text text-anchor="middle" x="193" y="-31.5" font-family="Helvetica,sans-Serif" font-size="10.00">ressources</text>
</a>
</g>
</g>
<!-- dir_ded1f21a39ae19e27d2bdf7bc3638045 -->
<g id="node10" class="node"><title>dir_ded1f21a39ae19e27d2bdf7bc3638045</title>
<g id="a_node10"><a xlink:href="dir_ded1f21a39ae19e27d2bdf7bc3638045.html" target="_top" xlink:title="settings">
<polygon fill="white" stroke="black" points="142,-52 88,-52 88,-16 142,-16 142,-52"/>
<text text-anchor="middle" x="115" y="-31.5" font-family="Helvetica,sans-Serif" font-size="10.00">settings</text>
</a>
</g>
</g>
<!-- dir_1563a38af0d3a5e4a6330d6d45e9792a -->
<g id="node11" class="node"><title>dir_1563a38af0d3a5e4a6330d6d45e9792a</title>
<g id="a_node11"><a xlink:href="dir_1563a38af0d3a5e4a6330d6d45e9792a.html" target="_top" xlink:title="tools">
<polygon fill="white" stroke="red" points="70,-52 16,-52 16,-16 70,-16 70,-52"/>
<text text-anchor="middle" x="43" y="-31.5" font-family="Helvetica,sans-Serif" font-size="10.00">tools</text>
</a>
</g>
</g>
</g>
</svg>
