<?xml version="1.0" encoding="UTF-8" standalone="no"?>
<!DOCTYPE svg PUBLIC "-//W3C//DTD SVG 1.1//EN"
 "http://www.w3.org/Graphics/SVG/1.1/DTD/svg11.dtd">
<!-- Generated by graphviz version 2.38.0 (20140413.2041)
 -->
<!-- Title: C:/Workspace/Projects/fux/include/tools Pages: 1 -->
<svg width="414pt" height="111pt"
 viewBox="0.00 0.00 414.00 111.00" xmlns="http://www.w3.org/2000/svg" xmlns:xlink="http://www.w3.org/1999/xlink">
<g id="graph0" class="graph" transform="scale(1 1) rotate(0) translate(4 107)">
<title>C:/Workspace/Projects/fux/include/tools</title>
<polygon fill="white" stroke="none" points="-4,4 -4,-107 410,-107 410,4 -4,4"/>
<g id="clust1" class="cluster"><title>clusterdir_d44c64559bbebec7f509842c48db8b23</title>
<g id="a_clust1"><a xlink:href="dir_d44c64559bbebec7f509842c48db8b23.html" target="_top" xlink:title="include">
<polygon fill="#ddddee" stroke="black" points="8,-8 8,-95 398,-95 398,-8 8,-8"/>
<text text-anchor="middle" x="203" y="-83" font-family="Helvetica,sans-Serif" font-size="10.00">include</text>
</a>
</g>
</g>
<g id="clust2" class="cluster"><title>clusterdir_db22b1395f615d1428e10e22469fe87b</title>
<g id="a_clust2"><a xlink:href="dir_db22b1395f615d1428e10e22469fe87b.html" target="_top">
<polygon fill="#eeeeff" stroke="black" points="16,-16 16,-68 390,-68 390,-16 16,-16"/>
</a>
</g>
</g>
<!-- dir_db22b1395f615d1428e10e22469fe87b -->
<g id="node1" class="node"><title>dir_db22b1395f615d1428e10e22469fe87b</title>
<text text-anchor="middle" x="355" y="-39.5" font-family="Helvetica,sans-Serif" font-size="10.00">tools</text>
</g>
<!-- dir_06065e901b5a50dfb20c7a138e371361 -->
<g id="node2" class="node"><title>dir_06065e901b5a50dfb20c7a138e371361</title>
<g id="a_node2"><a xlink:href="dir_06065e901b5a50dfb20c7a138e371361.html" target="_top" xlink:title="dir_traverser">
<polygon fill="white" stroke="black" points="309.5,-60 240.5,-60 240.5,-24 309.5,-24 309.5,-60"/>
<text text-anchor="middle" x="275" y="-39.5" font-family="Helvetica,sans-Serif" font-size="10.00">dir_traverser</text>
</a>
</g>
</g>
<!-- dir_0c98a68ca08df7b4d1c8bbf581c786a0 -->
<g id="node3" class="node"><title>dir_0c98a68ca08df7b4d1c8bbf581c786a0</title>
<g id="a_node3"><a xlink:href="dir_0c98a68ca08df7b4d1c8bbf581c786a0.html" target="_top" xlink:title="dnd">
<polygon fill="white" stroke="black" points="222,-60 168,-60 168,-24 222,-24 222,-60"/>
<text text-anchor="middle" x="195" y="-39.5" font-family="Helvetica,sans-Serif" font-size="10.00">dnd</text>
</a>
</g>
</g>
<!-- dir_8eb96a8248daa25f7d256199449f4ed9 -->
<g id="node4" class="node"><title>dir_8eb96a8248daa25f7d256199449f4ed9</title>
<g id="a_node4"><a xlink:href="dir_8eb96a8248daa25f7d256199449f4ed9.html" target="_top" xlink:title="stl">
<polygon fill="white" stroke="black" points="150,-60 96,-60 96,-24 150,-24 150,-60"/>
<text text-anchor="middle" x="123" y="-39.5" font-family="Helvetica,sans-Serif" font-size="10.00">stl</text>
</a>
</g>
</g>
<!-- dir_a0cf1b3c0a2e3774dfe6525219ed095e -->
<g id="node5" class="node"><title>dir_a0cf1b3c0a2e3774dfe6525219ed095e</title>
<g id="a_node5"><a xlink:href="dir_a0cf1b3c0a2e3774dfe6525219ed095e.html" target="_top" xlink:title="thread">
<polygon fill="white" stroke="black" points="78,-60 24,-60 24,-24 78,-24 78,-60"/>
<text text-anchor="middle" x="51" y="-39.5" font-family="Helvetica,sans-Serif" font-size="10.00">thread</text>
</a>
</g>
</g>
</g>
</svg>
