<?xml version="1.0" encoding="UTF-8" standalone="no"?>
<!DOCTYPE svg PUBLIC "-//W3C//DTD SVG 1.1//EN"
 "http://www.w3.org/Graphics/SVG/1.1/DTD/svg11.dtd">
<!-- Generated by graphviz version 2.38.0 (20140413.2041)
 -->
<!-- Title: Graphe hiérarchique des classes Pages: 1 -->
<svg width="244pt" height="142pt"
 viewBox="0.00 0.00 244.00 142.00" xmlns="http://www.w3.org/2000/svg" xmlns:xlink="http://www.w3.org/1999/xlink">
<g id="graph0" class="graph" transform="scale(1 1) rotate(0) translate(4 138)">
<title>Graphe hiérarchique des classes</title>
<polygon fill="white" stroke="none" points="-4,4 -4,-138 240,-138 240,4 -4,4"/>
<!-- Node1 -->
<g id="node1" class="node"><title>Node1</title>
<polygon fill="white" stroke="#bfbfbf" points="0,-57.5 0,-76.5 80,-76.5 80,-57.5 0,-57.5"/>
<text text-anchor="middle" x="40" y="-64.5" font-family="Helvetica,sans-Serif" font-size="10.00">wxDirTraverser</text>
</g>
<!-- Node2 -->
<g id="node2" class="node"><title>Node2</title>
<g id="a_node2"><a xlink:href="class_search.html" target="_top" xlink:title="Parcours une arborescence et place dans un fichier texte tous les noms des fichiers rencontrés...">
<polygon fill="white" stroke="black" points="152.5,-114.5 152.5,-133.5 199.5,-133.5 199.5,-114.5 152.5,-114.5"/>
<text text-anchor="middle" x="176" y="-121.5" font-family="Helvetica,sans-Serif" font-size="10.00">Search</text>
</a>
</g>
</g>
<!-- Node1&#45;&gt;Node2 -->
<g id="edge1" class="edge"><title>Node1&#45;&gt;Node2</title>
<path fill="none" stroke="midnightblue" d="M67.0784,-81.4901C81.2875,-89.0572 99.3284,-98.1421 116,-105 127.743,-109.831 141.196,-114.245 152.287,-117.6"/>
<polygon fill="midnightblue" stroke="midnightblue" points="68.3791,-78.2146 57.9175,-76.5398 65.0513,-84.3731 68.3791,-78.2146"/>
</g>
<!-- Node3 -->
<g id="node3" class="node"><title>Node3</title>
<g id="a_node3"><a xlink:href="class_traverser_copie_dossier.html" target="_top" xlink:title="Copie le contenu d&#39;un dossier origine dans un répertoire destination. ">
<polygon fill="white" stroke="black" points="119.5,-76.5 119.5,-95.5 232.5,-95.5 232.5,-76.5 119.5,-76.5"/>
<text text-anchor="middle" x="176" y="-83.5" font-family="Helvetica,sans-Serif" font-size="10.00">TraverserCopieDossier</text>
</a>
</g>
</g>
<!-- Node1&#45;&gt;Node3 -->
<g id="edge2" class="edge"><title>Node1&#45;&gt;Node3</title>
<path fill="none" stroke="midnightblue" d="M90.1237,-73.9653C99.565,-75.304 109.517,-76.7151 119.153,-78.0814"/>
<polygon fill="midnightblue" stroke="midnightblue" points="90.5109,-70.4853 80.1186,-72.5467 89.5282,-77.416 90.5109,-70.4853"/>
</g>
<!-- Node4 -->
<g id="node4" class="node"><title>Node4</title>
<g id="a_node4"><a xlink:href="class_traverser_copie_fichier.html" target="_top" xlink:title="Copie les fichiers se trouvant dans l&#39;arborescence dep dans le répertoire dest. ">
<polygon fill="white" stroke="black" points="121,-38.5 121,-57.5 231,-57.5 231,-38.5 121,-38.5"/>
<text text-anchor="middle" x="176" y="-45.5" font-family="Helvetica,sans-Serif" font-size="10.00">TraverserCopieFichier</text>
</a>
</g>
</g>
<!-- Node1&#45;&gt;Node4 -->
<g id="edge3" class="edge"><title>Node1&#45;&gt;Node4</title>
<path fill="none" stroke="midnightblue" d="M90.2,-60.0239C100.107,-58.6192 110.574,-57.1351 120.645,-55.7071"/>
<polygon fill="midnightblue" stroke="midnightblue" points="89.5282,-56.584 80.1186,-61.4533 90.5109,-63.5147 89.5282,-56.584"/>
</g>
<!-- Node5 -->
<g id="node5" class="node"><title>Node5</title>
<g id="a_node5"><a xlink:href="class_traverser_deplace_fichier.html" target="_top" xlink:title="Déplace le contenu d&#39;un dossier origine dans un répertoire destination. ">
<polygon fill="white" stroke="black" points="116,-0.5 116,-19.5 236,-19.5 236,-0.5 116,-0.5"/>
<text text-anchor="middle" x="176" y="-7.5" font-family="Helvetica,sans-Serif" font-size="10.00">TraverserDeplaceFichier</text>
</a>
</g>
</g>
<!-- Node1&#45;&gt;Node5 -->
<g id="edge4" class="edge"><title>Node1&#45;&gt;Node5</title>
<path fill="none" stroke="midnightblue" d="M67.0784,-52.5099C81.2875,-44.9428 99.3284,-35.8579 116,-29 124.36,-25.5612 133.586,-22.3335 142.209,-19.5485"/>
<polygon fill="midnightblue" stroke="midnightblue" points="65.0513,-49.6269 57.9175,-57.4602 68.3791,-55.7854 65.0513,-49.6269"/>
</g>
</g>
</svg>
