<?xml version="1.0" encoding="UTF-8" standalone="no"?>
<!DOCTYPE svg PUBLIC "-//W3C//DTD SVG 1.1//EN"
 "http://www.w3.org/Graphics/SVG/1.1/DTD/svg11.dtd">
<!-- Generated by graphviz version 2.38.0 (20140413.2041)
 -->
<!-- Title: Graphe hiérarchique des classes Pages: 1 -->
<svg width="198pt" height="66pt"
 viewBox="0.00 0.00 198.00 66.00" xmlns="http://www.w3.org/2000/svg" xmlns:xlink="http://www.w3.org/1999/xlink">
<g id="graph0" class="graph" transform="scale(1 1) rotate(0) translate(4 62)">
<title>Graphe hiérarchique des classes</title>
<polygon fill="white" stroke="none" points="-4,4 -4,-62 194,-62 194,4 -4,4"/>
<!-- Node1 -->
<g id="node1" class="node"><title>Node1</title>
<polygon fill="white" stroke="#bfbfbf" points="0,-19.5 0,-38.5 56,-38.5 56,-19.5 0,-19.5"/>
<text text-anchor="middle" x="28" y="-26.5" font-family="Helvetica,sans-Serif" font-size="10.00">wxFrame</text>
</g>
<!-- Node2 -->
<g id="node2" class="node"><title>Node2</title>
<g id="a_node2"><a xlink:href="class_fenetre_detachable.html" target="_top" xlink:title="Fenêtre qui peut accueillir un panel. ">
<polygon fill="white" stroke="black" points="92,-38.5 92,-57.5 190,-57.5 190,-38.5 92,-38.5"/>
<text text-anchor="middle" x="141" y="-45.5" font-family="Helvetica,sans-Serif" font-size="10.00">FenetreDetachable</text>
</a>
</g>
</g>
<!-- Node1&#45;&gt;Node2 -->
<g id="edge1" class="edge"><title>Node1&#45;&gt;Node2</title>
<path fill="none" stroke="midnightblue" d="M66.209,-35.3691C74.4539,-36.7804 83.3051,-38.2955 91.914,-39.7691"/>
<polygon fill="midnightblue" stroke="midnightblue" points="66.6008,-31.8854 56.1537,-33.6479 65.4198,-38.785 66.6008,-31.8854"/>
</g>
<!-- Node3 -->
<g id="node3" class="node"><title>Node3</title>
<g id="a_node3"><a xlink:href="class_fu_x_fenetre.html" target="_top" xlink:title="Interface principale de l&#39;application : barre de menu. ">
<polygon fill="white" stroke="black" points="108,-0.5 108,-19.5 174,-19.5 174,-0.5 108,-0.5"/>
<text text-anchor="middle" x="141" y="-7.5" font-family="Helvetica,sans-Serif" font-size="10.00">FuXFenetre</text>
</a>
</g>
</g>
<!-- Node1&#45;&gt;Node3 -->
<g id="edge2" class="edge"><title>Node1&#45;&gt;Node3</title>
<path fill="none" stroke="midnightblue" d="M66.0586,-22.6566C79.5066,-20.3547 94.5844,-17.7738 107.599,-15.5461"/>
<polygon fill="midnightblue" stroke="midnightblue" points="65.4198,-19.215 56.1537,-24.3521 66.6008,-26.1146 65.4198,-19.215"/>
</g>
</g>
</svg>
