<?xml version="1.0" encoding="UTF-8" standalone="no"?>
<!DOCTYPE svg PUBLIC "-//W3C//DTD SVG 1.1//EN"
 "http://www.w3.org/Graphics/SVG/1.1/DTD/svg11.dtd">
<!-- Generated by graphviz version 2.38.0 (20140413.2041)
 -->
<!-- Title: Graphe hi√©rarchique des classes Pages: 1 -->
<svg width="368pt" height="85pt"
 viewBox="0.00 0.00 368.00 85.00" xmlns="http://www.w3.org/2000/svg" xmlns:xlink="http://www.w3.org/1999/xlink">
<g id="graph0" class="graph" transform="scale(1 1) rotate(0) translate(4 81)">
<title>Graphe hi√©rarchique des classes</title>
<polygon fill="white" stroke="none" points="-4,4 -4,-81 364,-81 364,4 -4,4"/>
<!-- Node1 -->
<g id="node1" class="node"><title>Node1</title>
<polygon fill="white" stroke="#bfbfbf" points="0,-19.5 0,-38.5 98,-38.5 98,-19.5 0,-19.5"/>
<text text-anchor="middle" x="49" y="-26.5" font-family="Helvetica,sans-Serif" font-size="10.00">wxScrolledWindow</text>
</g>
<!-- Node2 -->
<g id="node2" class="node"><title>Node2</title>
<g id="a_node2"><a xlink:href="class_generic_tree_panel.html" target="_top" xlink:title="Inteface g√©n√©rique pour les pr√©f√©rences. ">
<polygon fill="white" stroke="black" points="134,-38.5 134,-57.5 228,-57.5 228,-38.5 134,-38.5"/>
<text text-anchor="middle" x="181" y="-45.5" font-family="Helvetica,sans-Serif" font-size="10.00">GenericTreePanel</text>
</a>
</g>
</g>
<!-- Node1&#45;&gt;Node2 -->
<g id="edge1" class="edge"><title>Node1&#45;&gt;Node2</title>
<path fill="none" stroke="midnightblue" d="M108.075,-37.4878C116.721,-38.7515 125.533,-40.0394 133.888,-41.2606"/>
<polygon fill="midnightblue" stroke="midnightblue" points="108.439,-34.004 98.0379,-36.0209 107.427,-40.9304 108.439,-34.004"/>
</g>
<!-- Node5 -->
<g id="node5" class="node"><title>Node5</title>
<g id="a_node5"><a xlink:href="class_preference_defaut.html" target="_top" xlink:title="GËre l&#39;application des filtres (couleur et sonore), et le comportement par dÈfaut de l&#39;application...">
<polygon fill="white" stroke="black" points="135.5,-0.5 135.5,-19.5 226.5,-19.5 226.5,-0.5 135.5,-0.5"/>
<text text-anchor="middle" x="181" y="-7.5" font-family="Helvetica,sans-Serif" font-size="10.00">PreferenceDefaut</text>
</a>
</g>
</g>
<!-- Node1&#45;&gt;Node5 -->
<g id="edge4" class="edge"><title>Node1&#45;&gt;Node5</title>
<path fill="none" stroke="midnightblue" d="M108.158,-20.5C117.223,-19.1751 126.468,-17.8239 135.176,-16.5512"/>
<polygon fill="midnightblue" stroke="midnightblue" points="107.427,-17.0696 98.0379,-21.9791 108.439,-23.996 107.427,-17.0696"/>
</g>
<!-- Node3 -->
<g id="node3" class="node"><title>Node3</title>
<g id="a_node3"><a xlink:href="class_preference_couleur.html" target="_top" xlink:title="Interface reprÈsentant diffÈrentes compositions graphiques Les fichiers sont synchronisÈs en mÍme temps q...">
<polygon fill="white" stroke="black" points="264,-57.5 264,-76.5 360,-76.5 360,-57.5 264,-57.5"/>
<text text-anchor="middle" x="312" y="-64.5" font-family="Helvetica,sans-Serif" font-size="10.00">PreferenceCouleur</text>
</a>
</g>
</g>
<!-- Node2&#45;&gt;Node3 -->
<g id="edge2" class="edge"><title>Node2&#45;&gt;Node3</title>
<path fill="none" stroke="midnightblue" d="M238.133,-56.2677C246.699,-57.5293 255.464,-58.8203 263.812,-60.0498"/>
<polygon fill="midnightblue" stroke="midnightblue" points="238.611,-52.8004 228.208,-54.8058 237.591,-59.7256 238.611,-52.8004"/>
</g>
<!-- Node4 -->
<g id="node4" class="node"><title>Node4</title>
<g id="a_node4"><a xlink:href="class_preference_son.html" target="_top" xlink:title="Interface repr√©sentant diff√©rents volumes sonores Les fichiers sont synchronis√©s en m√™me temps que ch...">
<polygon fill="white" stroke="black" points="272,-19.5 272,-38.5 352,-38.5 352,-19.5 272,-19.5"/>
<text text-anchor="middle" x="312" y="-26.5" font-family="Helvetica,sans-Serif" font-size="10.00">PreferenceSon</text>
</a>
</g>
</g>
<!-- Node2&#45;&gt;Node4 -->
<g id="edge3" class="edge"><title>Node2&#45;&gt;Node4</title>
<path fill="none" stroke="midnightblue" d="M238.102,-39.7369C249.507,-38.057 261.269,-36.3247 271.928,-34.7548"/>
<polygon fill="midnightblue" stroke="midnightblue" points="237.591,-36.2744 228.208,-41.1942 238.611,-43.1996 237.591,-36.2744"/>
</g>
</g>
</svg>
