<?xml version="1.0" encoding="UTF-8" standalone="no"?>
<!DOCTYPE svg PUBLIC "-//W3C//DTD SVG 1.1//EN"
 "http://www.w3.org/Graphics/SVG/1.1/DTD/svg11.dtd">
<!-- Generated by graphviz version 2.38.0 (20140413.2041)
 -->
<!-- Title: Graphe hi√©rarchique des classes Pages: 1 -->
<svg width="246pt" height="104pt"
 viewBox="0.00 0.00 246.00 104.00" xmlns="http://www.w3.org/2000/svg" xmlns:xlink="http://www.w3.org/1999/xlink">
<g id="graph0" class="graph" transform="scale(1 1) rotate(0) translate(4 100)">
<title>Graphe hi√©rarchique des classes</title>
<polygon fill="white" stroke="none" points="-4,4 -4,-100 242,-100 242,4 -4,4"/>
<!-- Node1 -->
<g id="node1" class="node"><title>Node1</title>
<polygon fill="white" stroke="#bfbfbf" points="0,-38.5 0,-57.5 59,-57.5 59,-38.5 0,-38.5"/>
<text text-anchor="middle" x="29.5" y="-45.5" font-family="Helvetica,sans-Serif" font-size="10.00">wxListCtrl</text>
</g>
<!-- Node2 -->
<g id="node2" class="node"><title>Node2</title>
<g id="a_node2"><a xlink:href="classgui_1_1explorer_1_1_explorer_list_ctrl.html" target="_top" xlink:title="gui::explorer::ExplorerListCtrl">
<polygon fill="white" stroke="black" points="95,-76.5 95,-95.5 238,-95.5 238,-76.5 95,-76.5"/>
<text text-anchor="middle" x="166.5" y="-83.5" font-family="Helvetica,sans-Serif" font-size="10.00">gui::explorer::ExplorerListCtrl</text>
</a>
</g>
</g>
<!-- Node1&#45;&gt;Node2 -->
<g id="edge1" class="edge"><title>Node1&#45;&gt;Node2</title>
<path fill="none" stroke="midnightblue" d="M68.8381,-59.4525C77.4353,-61.9763 86.5207,-64.6089 95,-67 106.224,-70.1653 118.486,-73.5093 129.591,-76.4949"/>
<polygon fill="midnightblue" stroke="midnightblue" points="69.6172,-56.0333 59.0355,-56.5607 67.6365,-62.7472 69.6172,-56.0333"/>
</g>
<!-- Node3 -->
<g id="node3" class="node"><title>Node3</title>
<g id="a_node3"><a xlink:href="class_liste_gestion_periph.html" target="_top" xlink:title="Liste affichant le contenu d&#39;un fichier ou d&#39;un dossier. ">
<polygon fill="white" stroke="black" points="117,-38.5 117,-57.5 216,-57.5 216,-38.5 117,-38.5"/>
<text text-anchor="middle" x="166.5" y="-45.5" font-family="Helvetica,sans-Serif" font-size="10.00">ListeGestionPeriph</text>
</a>
</g>
</g>
<!-- Node1&#45;&gt;Node3 -->
<g id="edge2" class="edge"><title>Node1&#45;&gt;Node3</title>
<path fill="none" stroke="midnightblue" d="M69.4753,-48C84.302,-48 101.379,-48 116.982,-48"/>
<polygon fill="midnightblue" stroke="midnightblue" points="69.1301,-44.5001 59.13,-48 69.13,-51.5001 69.1301,-44.5001"/>
</g>
<!-- Node4 -->
<g id="node4" class="node"><title>Node4</title>
<g id="a_node4"><a xlink:href="class_play_list_tableau.html" target="_top" xlink:title="Tableau (GUI) dans lequel sont affichÈs les informations des titres mis dans la liste de lecture...">
<polygon fill="white" stroke="black" points="123.5,-0.5 123.5,-19.5 209.5,-19.5 209.5,-0.5 123.5,-0.5"/>
<text text-anchor="middle" x="166.5" y="-7.5" font-family="Helvetica,sans-Serif" font-size="10.00">PlayListTableau</text>
</a>
</g>
</g>
<!-- Node1&#45;&gt;Node4 -->
<g id="edge3" class="edge"><title>Node1&#45;&gt;Node4</title>
<path fill="none" stroke="midnightblue" d="M68.8381,-36.5475C77.4353,-34.0237 86.5207,-31.3911 95,-29 106.224,-25.8347 118.486,-22.4907 129.591,-19.5051"/>
<polygon fill="midnightblue" stroke="midnightblue" points="67.6365,-33.2528 59.0355,-39.4393 69.6172,-39.9667 67.6365,-33.2528"/>
</g>
</g>
</svg>
