<?xml version="1.0" encoding="UTF-8" standalone="no"?>
<!DOCTYPE svg PUBLIC "-//W3C//DTD SVG 1.1//EN"
 "http://www.w3.org/Graphics/SVG/1.1/DTD/svg11.dtd">
<!-- Generated by graphviz version 2.38.0 (20140413.2041)
 -->
<!-- Title: Graphe hi√©rarchique des classes Pages: 1 -->
<svg width="208pt" height="66pt"
 viewBox="0.00 0.00 208.00 66.00" xmlns="http://www.w3.org/2000/svg" xmlns:xlink="http://www.w3.org/1999/xlink">
<g id="graph0" class="graph" transform="scale(1 1) rotate(0) translate(4 62)">
<title>Graphe hi√©rarchique des classes</title>
<polygon fill="white" stroke="none" points="-4,4 -4,-62 204,-62 204,4 -4,4"/>
<!-- Node1 -->
<g id="node1" class="node"><title>Node1</title>
<polygon fill="white" stroke="#bfbfbf" points="0,-19.5 0,-38.5 56,-38.5 56,-19.5 0,-19.5"/>
<text text-anchor="middle" x="28" y="-26.5" font-family="Helvetica,sans-Serif" font-size="10.00">wxDialog</text>
</g>
<!-- Node2 -->
<g id="node2" class="node"><title>Node2</title>
<g id="a_node2"><a xlink:href="class_dialog_enregistre_m3_u.html" target="_top" xlink:title="Ouvre une boÓte de dialogue permettant de choisir le nom du fichiers .m3u ‡ crÈer et Èventuellement le ra...">
<polygon fill="white" stroke="black" points="92,-38.5 92,-57.5 200,-57.5 200,-38.5 92,-38.5"/>
<text text-anchor="middle" x="146" y="-45.5" font-family="Helvetica,sans-Serif" font-size="10.00">DialogEnregistreM3U</text>
</a>
</g>
</g>
<!-- Node1&#45;&gt;Node2 -->
<g id="edge1" class="edge"><title>Node1&#45;&gt;Node2</title>
<path fill="none" stroke="midnightblue" d="M66.2021,-35.0934C74.4191,-36.4393 83.278,-37.8904 91.986,-39.3167"/>
<polygon fill="midnightblue" stroke="midnightblue" points="66.6311,-31.6172 56.1968,-33.4547 65.4996,-38.5251 66.6311,-31.6172"/>
</g>
<!-- Node3 -->
<g id="node3" class="node"><title>Node3</title>
<g id="a_node3"><a xlink:href="class_dialog_tag_m_p3.html" target="_top" xlink:title="Ouvre une bo√Æte de dialogue affichant les propri√©t√©s du titre s√©lectionn√© ">
<polygon fill="white" stroke="black" points="106,-0.5 106,-19.5 186,-19.5 186,-0.5 106,-0.5"/>
<text text-anchor="middle" x="146" y="-7.5" font-family="Helvetica,sans-Serif" font-size="10.00">DialogTagMP3</text>
</a>
</g>
</g>
<!-- Node1&#45;&gt;Node3 -->
<g id="edge2" class="edge"><title>Node1&#45;&gt;Node3</title>
<path fill="none" stroke="midnightblue" d="M66.3391,-22.8841C78.9037,-20.8261 92.9564,-18.5244 105.67,-16.4421"/>
<polygon fill="midnightblue" stroke="midnightblue" points="65.4996,-19.4749 56.1968,-24.5453 66.6311,-26.3828 65.4996,-19.4749"/>
</g>
</g>
</svg>
