<?xml version="1.0" encoding="UTF-8" standalone="no"?>
<!DOCTYPE svg PUBLIC "-//W3C//DTD SVG 1.1//EN"
 "http://www.w3.org/Graphics/SVG/1.1/DTD/svg11.dtd">
<!-- Generated by graphviz version 2.38.0 (20140413.2041)
 -->
<!-- Title: Graphe hiérarchique des classes Pages: 1 -->
<svg width="274pt" height="116pt"
 viewBox="0.00 0.00 274.00 115.50" xmlns="http://www.w3.org/2000/svg" xmlns:xlink="http://www.w3.org/1999/xlink">
<g id="graph0" class="graph" transform="scale(1 1) rotate(0) translate(4 111.5)">
<title>Graphe hiérarchique des classes</title>
<polygon fill="white" stroke="none" points="-4,4 -4,-111.5 270,-111.5 270,4 -4,4"/>
<!-- Node1 -->
<g id="node1" class="node"><title>Node1</title>
<g id="a_node1"><a xlink:href="classfux_1_1thread_1_1_i_runnable.html" target="_top" xlink:title="Interface for threaded treatments Interface for threaded treatments. ">
<polygon fill="white" stroke="black" points="0,-38.5 0,-57.5 111,-57.5 111,-38.5 0,-38.5"/>
<text text-anchor="middle" x="55.5" y="-45.5" font-family="Helvetica,sans-Serif" font-size="10.00">fux::thread::IRunnable</text>
</a>
</g>
</g>
<!-- Node2 -->
<g id="node2" class="node"><title>Node2</title>
<g id="a_node2"><a xlink:href="classfux_1_1thread_1_1_file_deletion_thread.html" target="_top" xlink:title="fux::thread::FileDeletion\lThread">
<polygon fill="white" stroke="black" points="147,-77 147,-107 266,-107 266,-77 147,-77"/>
<text text-anchor="start" x="155" y="-95" font-family="Helvetica,sans-Serif" font-size="10.00">fux::thread::FileDeletion</text>
<text text-anchor="middle" x="206.5" y="-84" font-family="Helvetica,sans-Serif" font-size="10.00">Thread</text>
</a>
</g>
</g>
<!-- Node1&#45;&gt;Node2 -->
<g id="edge1" class="edge"><title>Node1&#45;&gt;Node2</title>
<path fill="none" stroke="midnightblue" d="M98.678,-60.4553C116.037,-65.5813 136.299,-71.5649 154.483,-76.9346"/>
<polygon fill="midnightblue" stroke="midnightblue" points="99.4126,-57.0228 88.8308,-57.5473 97.4301,-63.7362 99.4126,-57.0228"/>
</g>
<!-- Node3 -->
<g id="node3" class="node"><title>Node3</title>
<g id="a_node3"><a xlink:href="class_music_file_reader_thread.html" target="_top" xlink:title="Delegate for thread processing. ">
<polygon fill="white" stroke="black" points="147,-38.5 147,-57.5 266,-57.5 266,-38.5 147,-38.5"/>
<text text-anchor="middle" x="206.5" y="-45.5" font-family="Helvetica,sans-Serif" font-size="10.00">MusicFileReaderThread</text>
</a>
</g>
</g>
<!-- Node1&#45;&gt;Node3 -->
<g id="edge2" class="edge"><title>Node1&#45;&gt;Node3</title>
<path fill="none" stroke="midnightblue" d="M121.364,-48C129.843,-48 138.49,-48 146.859,-48"/>
<polygon fill="midnightblue" stroke="midnightblue" points="121.136,-44.5001 111.136,-48 121.136,-51.5001 121.136,-44.5001"/>
</g>
<!-- Node4 -->
<g id="node4" class="node"><title>Node4</title>
<g id="a_node4"><a xlink:href="class_music_file_writer_thread.html" target="_top" xlink:title="Delegate for thread process. ">
<polygon fill="white" stroke="black" points="149.5,-0.5 149.5,-19.5 263.5,-19.5 263.5,-0.5 149.5,-0.5"/>
<text text-anchor="middle" x="206.5" y="-7.5" font-family="Helvetica,sans-Serif" font-size="10.00">MusicFileWriterThread</text>
</a>
</g>
</g>
<!-- Node1&#45;&gt;Node4 -->
<g id="edge3" class="edge"><title>Node1&#45;&gt;Node4</title>
<path fill="none" stroke="midnightblue" d="M103.992,-35.8879C124.744,-30.5956 148.728,-24.4787 168.171,-19.5201"/>
<polygon fill="midnightblue" stroke="midnightblue" points="102.924,-32.5482 94.099,-38.411 104.654,-39.3311 102.924,-32.5482"/>
</g>
</g>
</svg>
