<?xml version="1.0" encoding="UTF-8" standalone="no"?>
<!DOCTYPE svg PUBLIC "-//W3C//DTD SVG 1.1//EN"
 "http://www.w3.org/Graphics/SVG/1.1/DTD/svg11.dtd">
<!-- Generated by graphviz version 2.38.0 (20140413.2041)
 -->
<!-- Title: Graphe hiérarchique des classes Pages: 1 -->
<svg width="475pt" height="66pt"
 viewBox="0.00 0.00 475.00 66.00" xmlns="http://www.w3.org/2000/svg" xmlns:xlink="http://www.w3.org/1999/xlink">
<g id="graph0" class="graph" transform="scale(1 1) rotate(0) translate(4 62)">
<title>Graphe hiérarchique des classes</title>
<polygon fill="white" stroke="none" points="-4,4 -4,-62 471,-62 471,4 -4,4"/>
<!-- Node1 -->
<g id="node1" class="node"><title>Node1</title>
<g id="a_node1"><a xlink:href="class_i_music_manager.html" target="_top" xlink:title="IMusicManager">
<polygon fill="white" stroke="black" points="0,-19.5 0,-38.5 83,-38.5 83,-19.5 0,-19.5"/>
<text text-anchor="middle" x="41.5" y="-26.5" font-family="Helvetica,sans-Serif" font-size="10.00">IMusicManager</text>
</a>
</g>
</g>
<!-- Node2 -->
<g id="node2" class="node"><title>Node2</title>
<g id="a_node2"><a xlink:href="class_abstract_music_manager_decorator.html" target="_top" xlink:title="AbstractMusicManagerDecorator">
<polygon fill="white" stroke="black" points="119,-19.5 119,-38.5 278,-38.5 278,-19.5 119,-19.5"/>
<text text-anchor="middle" x="198.5" y="-26.5" font-family="Helvetica,sans-Serif" font-size="10.00">AbstractMusicManagerDecorator</text>
</a>
</g>
</g>
<!-- Node1&#45;&gt;Node2 -->
<g id="edge1" class="edge"><title>Node1&#45;&gt;Node2</title>
<path fill="none" stroke="midnightblue" d="M93.3595,-29C101.579,-29 110.254,-29 118.946,-29"/>
<polygon fill="midnightblue" stroke="midnightblue" points="93.2245,-25.5001 83.2244,-29 93.2244,-32.5001 93.2245,-25.5001"/>
</g>
<!-- Node3 -->
<g id="node3" class="node"><title>Node3</title>
<g id="a_node3"><a xlink:href="class_music_manager_default_decorator.html" target="_top" xlink:title="MusicManagerDefaultDecorator">
<polygon fill="white" stroke="black" points="314.5,-38.5 314.5,-57.5 466.5,-57.5 466.5,-38.5 314.5,-38.5"/>
<text text-anchor="middle" x="390.5" y="-45.5" font-family="Helvetica,sans-Serif" font-size="10.00">MusicManagerDefaultDecorator</text>
</a>
</g>
</g>
<!-- Node2&#45;&gt;Node3 -->
<g id="edge2" class="edge"><title>Node2&#45;&gt;Node3</title>
<path fill="none" stroke="midnightblue" d="M288.297,-37.8797C296.981,-38.7481 305.735,-39.6235 314.266,-40.4766"/>
<polygon fill="midnightblue" stroke="midnightblue" points="288.45,-34.3777 278.152,-36.8652 287.754,-41.3429 288.45,-34.3777"/>
</g>
<!-- Node4 -->
<g id="node4" class="node"><title>Node4</title>
<g id="a_node4"><a xlink:href="class_music_manager_search_decorator.html" target="_top" xlink:title="MusicManagerSearchDecorator">
<polygon fill="white" stroke="black" points="314,-0.5 314,-19.5 467,-19.5 467,-0.5 314,-0.5"/>
<text text-anchor="middle" x="390.5" y="-7.5" font-family="Helvetica,sans-Serif" font-size="10.00">MusicManagerSearchDecorator</text>
</a>
</g>
</g>
<!-- Node2&#45;&gt;Node4 -->
<g id="edge3" class="edge"><title>Node2&#45;&gt;Node4</title>
<path fill="none" stroke="midnightblue" d="M288.21,-20.129C296.819,-19.2681 305.498,-18.4002 313.961,-17.5539"/>
<polygon fill="midnightblue" stroke="midnightblue" points="287.754,-16.6571 278.152,-21.1348 288.45,-23.6223 287.754,-16.6571"/>
</g>
</g>
</svg>
