<?xml version="1.0" encoding="UTF-8" standalone="no"?>
<!DOCTYPE svg PUBLIC "-//W3C//DTD SVG 1.1//EN"
 "http://www.w3.org/Graphics/SVG/1.1/DTD/svg11.dtd">
<!-- Generated by graphviz version 2.38.0 (20140413.2041)
 -->
<!-- Title: Graphe hi√©rarchique des classes Pages: 1 -->
<svg width="237pt" height="230pt"
 viewBox="0.00 0.00 237.00 230.00" xmlns="http://www.w3.org/2000/svg" xmlns:xlink="http://www.w3.org/1999/xlink">
<g id="graph0" class="graph" transform="scale(1 1) rotate(0) translate(4 226)">
<title>Graphe hi√©rarchique des classes</title>
<polygon fill="white" stroke="none" points="-4,4 -4,-226 233,-226 233,4 -4,4"/>
<!-- Node1 -->
<g id="node1" class="node"><title>Node1</title>
<polygon fill="white" stroke="#bfbfbf" points="0,-98.5 0,-117.5 53,-117.5 53,-98.5 0,-98.5"/>
<text text-anchor="middle" x="26.5" y="-105.5" font-family="Helvetica,sans-Serif" font-size="10.00">wxPanel</text>
</g>
<!-- Node2 -->
<g id="node2" class="node"><title>Node2</title>
<g id="a_node2"><a xlink:href="class_dialog_tag_m_p3_info.html" target="_top" xlink:title="Page affichant les propriÈtÈs du titre donnÈ en paramËtre. ">
<polygon fill="white" stroke="black" points="111.5,-202.5 111.5,-221.5 206.5,-221.5 206.5,-202.5 111.5,-202.5"/>
<text text-anchor="middle" x="159" y="-209.5" font-family="Helvetica,sans-Serif" font-size="10.00">DialogTagMP3Info</text>
</a>
</g>
</g>
<!-- Node1&#45;&gt;Node2 -->
<g id="edge1" class="edge"><title>Node1&#45;&gt;Node2</title>
<path fill="none" stroke="midnightblue" d="M36.2021,-126.623C46.2321,-146.06 64.5321,-176.023 89,-193 95.6355,-197.604 103.35,-201.095 111.167,-203.741"/>
<polygon fill="midnightblue" stroke="midnightblue" points="39.2855,-124.962 31.7219,-117.543 33.008,-128.06 39.2855,-124.962"/>
</g>
<!-- Node3 -->
<g id="node3" class="node"><title>Node3</title>
<g id="a_node3"><a xlink:href="class_gest_periph.html" target="_top" xlink:title="Page contenant le double explorateur de fichier. ">
<polygon fill="white" stroke="black" points="126.5,-164.5 126.5,-183.5 191.5,-183.5 191.5,-164.5 126.5,-164.5"/>
<text text-anchor="middle" x="159" y="-171.5" font-family="Helvetica,sans-Serif" font-size="10.00">GestPeriph</text>
</a>
</g>
</g>
<!-- Node1&#45;&gt;Node3 -->
<g id="edge2" class="edge"><title>Node1&#45;&gt;Node3</title>
<path fill="none" stroke="midnightblue" d="M45.2098,-124.491C56.877,-134.572 72.9206,-147.021 89,-155 100.687,-160.799 114.394,-165.038 126.499,-168.02"/>
<polygon fill="midnightblue" stroke="midnightblue" points="47.3445,-121.705 37.5498,-117.666 42.6879,-126.932 47.3445,-121.705"/>
</g>
<!-- Node4 -->
<g id="node4" class="node"><title>Node4</title>
<g id="a_node4"><a xlink:href="classgui_1_1explorer_1_1_drive_managers_panel.html" target="_top" xlink:title="gui::explorer::DriveManagers\lPanel">
<polygon fill="white" stroke="black" points="89,-115 89,-145 229,-145 229,-115 89,-115"/>
<text text-anchor="start" x="97" y="-133" font-family="Helvetica,sans-Serif" font-size="10.00">gui::explorer::DriveManagers</text>
<text text-anchor="middle" x="159" y="-122" font-family="Helvetica,sans-Serif" font-size="10.00">Panel</text>
</a>
</g>
</g>
<!-- Node1&#45;&gt;Node4 -->
<g id="edge3" class="edge"><title>Node1&#45;&gt;Node4</title>
<path fill="none" stroke="midnightblue" d="M63.3297,-114.04C71.3424,-115.391 80.1038,-116.868 88.9585,-118.361"/>
<polygon fill="midnightblue" stroke="midnightblue" points="63.7253,-110.558 53.2826,-112.346 62.5616,-117.46 63.7253,-110.558"/>
</g>
<!-- Node5 -->
<g id="node5" class="node"><title>Node5</title>
<g id="a_node5"><a xlink:href="classgui_1_1explorer_1_1_explorer_panel.html" target="_top" xlink:title="gui::explorer::ExplorerPanel">
<polygon fill="white" stroke="black" points="90.5,-76.5 90.5,-95.5 227.5,-95.5 227.5,-76.5 90.5,-76.5"/>
<text text-anchor="middle" x="159" y="-83.5" font-family="Helvetica,sans-Serif" font-size="10.00">gui::explorer::ExplorerPanel</text>
</a>
</g>
</g>
<!-- Node1&#45;&gt;Node5 -->
<g id="edge4" class="edge"><title>Node1&#45;&gt;Node5</title>
<path fill="none" stroke="midnightblue" d="M63.2025,-101.981C75.0323,-99.9869 88.5047,-97.7157 101.505,-95.5241"/>
<polygon fill="midnightblue" stroke="midnightblue" points="62.5616,-98.5398 53.2826,-103.654 63.7253,-105.442 62.5616,-98.5398"/>
</g>
<!-- Node6 -->
<g id="node6" class="node"><title>Node6</title>
<g id="a_node6"><a xlink:href="class_page_gestion_periph.html" target="_top" xlink:title="Interface graphique permettant un dÈplacement dans l&#39;arborescence des fichiers. ">
<polygon fill="white" stroke="black" points="108.5,-38.5 108.5,-57.5 209.5,-57.5 209.5,-38.5 108.5,-38.5"/>
<text text-anchor="middle" x="159" y="-45.5" font-family="Helvetica,sans-Serif" font-size="10.00">PageGestionPeriph</text>
</a>
</g>
</g>
<!-- Node1&#45;&gt;Node6 -->
<g id="edge5" class="edge"><title>Node1&#45;&gt;Node6</title>
<path fill="none" stroke="midnightblue" d="M47.6182,-92.1963C59.1866,-83.7382 74.3031,-73.711 89,-67 97.1378,-63.2841 106.156,-60.1554 114.916,-57.5776"/>
<polygon fill="midnightblue" stroke="midnightblue" points="45.4191,-89.4708 39.5291,-98.2775 49.6255,-95.066 45.4191,-89.4708"/>
</g>
<!-- Node7 -->
<g id="node7" class="node"><title>Node7</title>
<g id="a_node7"><a xlink:href="class_play_list.html" target="_top" xlink:title="Page contenant la liste de lecture et une description dÈtaillÈe des titres. ">
<polygon fill="white" stroke="black" points="133,-0.5 133,-19.5 185,-19.5 185,-0.5 133,-0.5"/>
<text text-anchor="middle" x="159" y="-7.5" font-family="Helvetica,sans-Serif" font-size="10.00">PlayList</text>
</a>
</g>
</g>
<!-- Node1&#45;&gt;Node7 -->
<g id="edge6" class="edge"><title>Node1&#45;&gt;Node7</title>
<path fill="none" stroke="midnightblue" d="M37.3078,-89.3413C47.7549,-71.2674 65.953,-44.3982 89,-29 102.017,-20.3028 118.936,-15.5642 132.762,-12.9943"/>
<polygon fill="midnightblue" stroke="midnightblue" points="34.1023,-87.9051 32.3197,-98.3489 40.2261,-91.2962 34.1023,-87.9051"/>
</g>
</g>
</svg>
