<?xml version="1.0" encoding="UTF-8" standalone="no"?>
<!DOCTYPE svg PUBLIC "-//W3C//DTD SVG 1.1//EN"
 "http://www.w3.org/Graphics/SVG/1.1/DTD/svg11.dtd">
<!-- Generated by graphviz version 2.38.0 (20140413.2041)
 -->
<!-- Title: Graphe hiérarchique des classes Pages: 1 -->
<svg width="236pt" height="104pt"
 viewBox="0.00 0.00 236.00 104.00" xmlns="http://www.w3.org/2000/svg" xmlns:xlink="http://www.w3.org/1999/xlink">
<g id="graph0" class="graph" transform="scale(1 1) rotate(0) translate(4 100)">
<title>Graphe hiérarchique des classes</title>
<polygon fill="white" stroke="none" points="-4,4 -4,-100 232,-100 232,4 -4,4"/>
<!-- Node1 -->
<g id="node1" class="node"><title>Node1</title>
<polygon fill="white" stroke="#bfbfbf" points="0,-38.5 0,-57.5 58,-57.5 58,-38.5 0,-38.5"/>
<text text-anchor="middle" x="29" y="-45.5" font-family="Helvetica,sans-Serif" font-size="10.00">wxThread</text>
</g>
<!-- Node2 -->
<g id="node2" class="node"><title>Node2</title>
<g id="a_node2"><a xlink:href="class_b_d_d_thread.html" target="_top" xlink:title="Thread gérant la base de données. ">
<polygon fill="white" stroke="black" points="128,-76.5 128,-95.5 194,-95.5 194,-76.5 128,-76.5"/>
<text text-anchor="middle" x="161" y="-83.5" font-family="Helvetica,sans-Serif" font-size="10.00">BDDThread</text>
</a>
</g>
</g>
<!-- Node1&#45;&gt;Node2 -->
<g id="edge1" class="edge"><title>Node1&#45;&gt;Node2</title>
<path fill="none" stroke="midnightblue" d="M67.824,-59.2855C76.4251,-61.8361 85.5244,-64.522 94,-67 104.987,-70.2122 117.015,-73.6872 127.758,-76.776"/>
<polygon fill="midnightblue" stroke="midnightblue" points="68.6059,-55.8667 58.0232,-56.3741 66.6125,-62.5769 68.6059,-55.8667"/>
</g>
<!-- Node3 -->
<g id="node3" class="node"><title>Node3</title>
<g id="a_node3"><a xlink:href="classfux_1_1thread_1_1_thread_process.html" target="_top" xlink:title="Thread worker Thread worker. ">
<polygon fill="white" stroke="black" points="94,-38.5 94,-57.5 228,-57.5 228,-38.5 94,-38.5"/>
<text text-anchor="middle" x="161" y="-45.5" font-family="Helvetica,sans-Serif" font-size="10.00">fux::thread::ThreadProcess</text>
</a>
</g>
</g>
<!-- Node1&#45;&gt;Node3 -->
<g id="edge2" class="edge"><title>Node1&#45;&gt;Node3</title>
<path fill="none" stroke="midnightblue" d="M68.3896,-48C76.4656,-48 85.2041,-48 93.9676,-48"/>
<polygon fill="midnightblue" stroke="midnightblue" points="68.2081,-44.5001 58.2081,-48 68.208,-51.5001 68.2081,-44.5001"/>
</g>
<!-- Node4 -->
<g id="node4" class="node"><title>Node4</title>
<g id="a_node4"><a xlink:href="class_thread_fichier_fichier.html" target="_top" xlink:title="Thread faisant de la gestion de dossiers et fichiers. ">
<polygon fill="white" stroke="black" points="109,-0.5 109,-19.5 213,-19.5 213,-0.5 109,-0.5"/>
<text text-anchor="middle" x="161" y="-7.5" font-family="Helvetica,sans-Serif" font-size="10.00">ThreadFichierFichier</text>
</a>
</g>
</g>
<!-- Node1&#45;&gt;Node4 -->
<g id="edge3" class="edge"><title>Node1&#45;&gt;Node4</title>
<path fill="none" stroke="midnightblue" d="M67.824,-36.7145C76.4251,-34.1639 85.5244,-31.478 94,-29 104.643,-25.8882 116.264,-22.5298 126.747,-19.5147"/>
<polygon fill="midnightblue" stroke="midnightblue" points="66.6125,-33.4231 58.0232,-39.6259 68.6059,-40.1333 66.6125,-33.4231"/>
</g>
</g>
</svg>
